<?xml version="1.0" encoding="UTF-8"?>
<svg xmlns="http://www.w3.org/2000/svg" xmlns:xlink="http://www.w3.org/1999/xlink" width="850.5pt" height="850.5pt" viewBox="0 0 850.5 850.5" version="1.1">
<defs>
<clipPath id="clip2">
  <path d="M 460 226 L 502 226 L 502 285.5 L 460 285.5 Z M 460 226 "/>
</clipPath>
<clipPath id="clip1">
  <rect x="0" y="0" width="712" height="286"/>
</clipPath>
<g id="surface5" clip-path="url(#clip1)">
<path style=" stroke:none;fill-rule:nonzero;fill:rgb(35.68573%,57.647705%,64.706421%);fill-opacity:1;" d="M 0.871094 5.328125 L 32.921875 5.328125 C 45.816406 5.328125 55.726562 6.855469 62.652344 9.914062 C 69.578125 12.972656 75.046875 17.667969 79.0625 24.007812 C 83.078125 30.34375 85.085938 37.378906 85.085938 45.117188 C 85.085938 52.335938 83.320312 58.910156 79.78125 64.84375 C 76.246094 70.773438 71.050781 75.582031 64.199219 79.265625 C 72.671875 82.140625 79.191406 85.511719 83.761719 89.378906 C 88.328125 93.246094 91.886719 97.925781 94.425781 103.414062 C 96.96875 108.90625 98.238281 114.855469 98.238281 121.265625 C 98.238281 134.304688 93.46875 145.339844 83.925781 154.363281 C 74.386719 163.390625 61.582031 167.902344 45.519531 167.902344 L 0.871094 167.902344 C 0.871094 167.902344 0.871094 5.328125 0.871094 5.328125 Z M 16.785156 21.242188 L 16.785156 73.296875 L 26.070312 73.296875 C 37.34375 73.296875 45.632812 72.25 50.9375 70.148438 C 56.242188 68.046875 60.441406 64.734375 63.535156 60.203125 C 66.628906 55.671875 68.179688 50.640625 68.179688 45.117188 C 68.179688 37.671875 65.582031 31.835938 60.386719 27.597656 C 55.191406 23.359375 46.921875 21.242188 35.574219 21.242188 C 35.574219 21.242188 16.785156 21.242188 16.785156 21.242188 Z M 16.785156 89.65625 L 16.785156 151.988281 L 36.902344 151.988281 C 48.761719 151.988281 57.457031 150.828125 62.984375 148.507812 C 68.507812 146.1875 72.949219 142.558594 76.300781 137.621094 C 79.652344 132.683594 81.328125 127.34375 81.328125 121.59375 C 81.328125 114.375 78.972656 108.074219 74.257812 102.695312 C 69.542969 97.316406 63.058594 93.632812 54.804688 91.644531 C 49.277344 90.320312 39.664062 89.65625 25.960938 89.65625 C 25.960938 89.65625 16.785156 89.65625 16.785156 89.65625 Z M 16.785156 89.65625 "/>
<path style=" stroke:none;fill-rule:nonzero;fill:rgb(35.68573%,57.647705%,64.706421%);fill-opacity:1;" d="M 229.097656 128.007812 L 242.136719 134.859375 C 237.863281 143.257812 232.925781 150.035156 227.328125 155.195312 C 221.726562 160.351562 215.429688 164.273438 208.429688 166.964844 C 201.429688 169.652344 193.507812 171 184.667969 171 C 165.066406 171 149.742188 164.570312 138.691406 151.710938 C 127.636719 138.855469 122.113281 124.320312 122.113281 108.113281 C 122.113281 92.859375 126.789062 79.265625 136.148438 67.332031 C 148.011719 52.152344 163.890625 44.5625 183.78125 44.5625 C 204.265625 44.5625 220.621094 52.335938 232.855469 67.882812 C 241.546875 78.859375 245.96875 92.566406 246.117188 108.996094 L 138.027344 108.996094 C 138.320312 122.996094 142.78125 134.472656 151.398438 143.421875 C 160.019531 152.375 170.667969 156.851562 183.339844 156.851562 C 189.457031 156.851562 195.40625 155.785156 201.191406 153.648438 C 206.972656 151.511719 211.890625 148.671875 215.945312 145.136719 C 219.996094 141.601562 224.378906 135.890625 229.097656 128.007812 Z M 229.097656 95.625 C 227.03125 87.371094 224.03125 80.777344 220.089844 75.839844 C 216.148438 70.902344 210.933594 66.925781 204.449219 63.902344 C 197.964844 60.882812 191.152344 59.371094 184.003906 59.371094 C 172.214844 59.371094 162.082031 63.167969 153.609375 70.757812 C 147.421875 76.28125 142.742188 84.570312 139.574219 95.625 C 139.574219 95.625 229.097656 95.625 229.097656 95.625 Z M 229.097656 95.625 "/>
<path style=" stroke:none;fill-rule:nonzero;fill:rgb(100%,100%,100%);fill-opacity:1;" d="M 260.703125 137.621094 L 274.519531 129.332031 C 284.246094 147.238281 295.480469 156.1875 308.230469 156.1875 C 313.679688 156.1875 318.800781 154.917969 323.589844 152.375 C 328.378906 149.832031 332.027344 146.425781 334.53125 142.152344 C 337.039062 137.878906 338.289062 133.347656 338.289062 128.558594 C 338.289062 123.105469 336.449219 117.765625 332.765625 112.53125 C 327.679688 105.3125 318.398438 96.617188 304.914062 86.449219 C 291.355469 76.207031 282.917969 68.804688 279.605469 64.234375 C 273.855469 56.574219 270.984375 48.285156 270.984375 39.367188 C 270.984375 32.296875 272.679688 25.847656 276.066406 20.027344 C 279.457031 14.207031 284.226562 9.621094 290.378906 6.265625 C 296.53125 2.914062 303.21875 1.238281 310.4375 1.238281 C 318.101562 1.238281 325.265625 3.136719 331.933594 6.929688 C 338.601562 10.726562 345.660156 17.707031 353.101562 27.875 L 339.835938 37.929688 C 333.722656 29.828125 328.507812 24.484375 324.199219 21.90625 C 319.890625 19.328125 315.191406 18.039062 310.109375 18.039062 C 303.550781 18.039062 298.191406 20.027344 294.027344 24.007812 C 289.863281 27.984375 287.78125 32.882812 287.78125 38.707031 C 287.78125 42.242188 288.519531 45.667969 289.992188 48.984375 C 291.464844 52.300781 294.15625 55.910156 298.0625 59.816406 C 300.199219 61.878906 307.199219 67.292969 319.058594 76.0625 C 333.132812 86.449219 342.785156 95.695312 348.015625 103.800781 C 353.246094 111.90625 355.863281 120.046875 355.863281 128.226562 C 355.863281 140.015625 351.386719 150.257812 342.433594 158.953125 C 333.484375 167.644531 322.597656 171.992188 309.777344 171.992188 C 299.902344 171.992188 290.949219 169.359375 282.917969 164.089844 C 274.886719 158.824219 267.484375 150 260.703125 137.621094 Z M 260.703125 137.621094 "/>
<path style=" stroke:none;fill-rule:nonzero;fill:rgb(100%,100%,100%);fill-opacity:1;" d="M 385.703125 47.65625 L 401.285156 47.65625 L 401.285156 103.800781 C 401.285156 117.507812 402.023438 126.9375 403.496094 132.09375 C 405.707031 139.464844 409.925781 145.285156 416.152344 149.558594 C 422.378906 153.832031 429.800781 155.96875 438.421875 155.96875 C 447.042969 155.96875 454.355469 153.886719 460.359375 149.722656 C 466.367188 145.558594 470.511719 140.089844 472.792969 133.3125 C 474.339844 128.667969 475.113281 118.832031 475.113281 103.800781 L 475.113281 47.65625 L 490.917969 47.65625 L 490.917969 106.675781 C 490.917969 123.253906 488.984375 135.742188 485.117188 144.140625 C 481.25 152.542969 475.429688 159.117188 467.65625 163.871094 C 459.882812 168.621094 450.136719 171 438.421875 171 C 426.707031 171 416.925781 168.621094 409.078125 163.871094 C 401.230469 159.117188 395.375 152.484375 391.507812 143.976562 C 387.636719 135.464844 385.703125 122.664062 385.703125 105.570312 C 385.703125 105.570312 385.703125 47.65625 385.703125 47.65625 Z M 385.703125 47.65625 "/>
<path style=" stroke:none;fill-rule:nonzero;fill:rgb(100%,100%,100%);fill-opacity:1;" d="M 519.433594 47.65625 L 535.238281 47.65625 L 535.238281 65.230469 C 539.953125 58.304688 544.925781 53.128906 550.160156 49.703125 C 555.390625 46.277344 560.84375 44.5625 566.515625 44.5625 C 570.789062 44.5625 575.355469 45.925781 580.21875 48.652344 L 572.152344 61.695312 C 568.910156 60.292969 566.183594 59.59375 563.972656 59.59375 C 558.816406 59.59375 553.84375 61.710938 549.054688 65.949219 C 544.265625 70.183594 540.617188 76.761719 538.113281 85.675781 C 536.195312 92.527344 535.238281 106.378906 535.238281 127.230469 L 535.238281 167.902344 L 519.433594 167.902344 C 519.433594 167.902344 519.433594 47.65625 519.433594 47.65625 Z M 519.433594 47.65625 "/>
<path style=" stroke:none;fill-rule:nonzero;fill:rgb(100%,100%,100%);fill-opacity:1;" d="M 694.609375 128.007812 L 707.648438 134.859375 C 703.375 143.257812 698.441406 150.035156 692.839844 155.195312 C 687.242188 160.351562 680.941406 164.273438 673.941406 166.964844 C 666.941406 169.652344 659.019531 171 650.179688 171 C 630.582031 171 615.253906 164.570312 604.203125 151.710938 C 593.152344 138.855469 587.625 124.320312 587.625 108.113281 C 587.625 92.859375 592.304688 79.265625 601.660156 67.332031 C 613.523438 52.152344 629.402344 44.5625 649.296875 44.5625 C 669.777344 44.5625 686.136719 52.335938 698.367188 67.882812 C 707.0625 78.859375 711.480469 92.566406 711.628906 108.996094 L 603.539062 108.996094 C 603.835938 122.996094 608.292969 134.472656 616.914062 143.421875 C 625.535156 152.375 636.179688 156.851562 648.851562 156.851562 C 654.96875 156.851562 660.917969 155.785156 666.703125 153.648438 C 672.484375 151.511719 677.40625 148.671875 681.457031 145.136719 C 685.507812 141.601562 689.894531 135.890625 694.609375 128.007812 Z M 694.609375 95.625 C 692.546875 87.371094 689.542969 80.777344 685.601562 75.839844 C 681.660156 70.902344 676.445312 66.925781 669.960938 63.902344 C 663.480469 60.882812 656.664062 59.371094 649.515625 59.371094 C 637.726562 59.371094 627.597656 63.167969 619.125 70.757812 C 612.933594 76.28125 608.253906 84.570312 605.085938 95.625 C 605.085938 95.625 694.609375 95.625 694.609375 95.625 Z M 694.609375 95.625 "/>
<path style=" stroke:none;fill-rule:nonzero;fill:rgb(100%,100%,100%);fill-opacity:1;" d="M 0.871094 211.378906 L 30.054688 211.378906 L 30.054688 217.121094 L 6.652344 217.121094 L 6.652344 235.335938 L 30.054688 235.335938 L 30.054688 241.074219 L 6.652344 241.074219 L 6.652344 269.625 L 0.871094 269.625 C 0.871094 269.625 0.871094 211.378906 0.871094 211.378906 Z M 0.871094 211.378906 "/>
<path style=" stroke:none;fill-rule:nonzero;fill:rgb(100%,100%,100%);fill-opacity:1;" d="M 66.570312 225.4375 C 73.195312 225.4375 78.6875 227.839844 83.042969 232.640625 C 87.003906 237.023438 88.980469 242.210938 88.980469 248.203125 C 88.980469 254.222656 86.890625 259.480469 82.707031 263.980469 C 78.523438 268.484375 73.144531 270.734375 66.570312 270.734375 C 59.972656 270.734375 54.578125 268.484375 50.394531 263.980469 C 46.210938 259.480469 44.121094 254.222656 44.121094 248.203125 C 44.121094 242.238281 46.101562 237.0625 50.058594 232.683594 C 54.414062 227.851562 59.917969 225.4375 66.570312 225.4375 Z M 66.570312 230.859375 C 61.976562 230.859375 58.03125 232.5625 54.730469 235.96875 C 51.433594 239.375 49.78125 243.492188 49.78125 248.320312 C 49.78125 251.4375 50.535156 254.339844 52.039062 257.035156 C 53.542969 259.726562 55.578125 261.804688 58.136719 263.269531 C 60.699219 264.734375 63.507812 265.46875 66.570312 265.46875 C 69.632812 265.46875 72.445312 264.734375 75.003906 263.269531 C 77.566406 261.804688 79.597656 259.726562 81.101562 257.035156 C 82.605469 254.339844 83.359375 251.4375 83.359375 248.320312 C 83.359375 243.492188 81.703125 239.375 78.390625 235.96875 C 75.078125 232.5625 71.136719 230.859375 66.570312 230.859375 Z M 66.570312 230.859375 "/>
<path style=" stroke:none;fill-rule:nonzero;fill:rgb(100%,100%,100%);fill-opacity:1;" d="M 104.078125 226.542969 L 109.742188 226.542969 L 109.742188 232.839844 C 111.429688 230.359375 113.210938 228.503906 115.085938 227.277344 C 116.960938 226.050781 118.914062 225.4375 120.945312 225.4375 C 122.476562 225.4375 124.113281 225.925781 125.855469 226.902344 L 122.964844 231.574219 C 121.804688 231.070312 120.828125 230.820312 120.035156 230.820312 C 118.1875 230.820312 116.40625 231.578125 114.691406 233.097656 C 112.972656 234.617188 111.667969 236.972656 110.769531 240.164062 C 110.085938 242.621094 109.742188 247.582031 109.742188 255.054688 L 109.742188 269.625 L 104.078125 269.625 C 104.078125 269.625 104.078125 226.542969 104.078125 226.542969 Z M 104.078125 226.542969 "/>
<path style=" stroke:none;fill-rule:nonzero;fill:rgb(100%,100%,100%);fill-opacity:1;" d="M 167.652344 211.378906 L 173.511719 211.378906 L 173.511719 235.808594 L 203.128906 235.808594 L 203.128906 211.378906 L 208.988281 211.378906 L 208.988281 269.625 L 203.128906 269.625 L 203.128906 241.511719 L 173.511719 241.511719 L 173.511719 269.625 L 167.652344 269.625 C 167.652344 269.625 167.652344 211.378906 167.652344 211.378906 Z M 167.652344 211.378906 "/>
<path style=" stroke:none;fill-rule:nonzero;fill:rgb(100%,100%,100%);fill-opacity:1;" d="M 265.382812 255.332031 L 270.054688 257.785156 C 268.523438 260.792969 266.757812 263.222656 264.75 265.070312 C 262.742188 266.917969 260.488281 268.324219 257.980469 269.289062 C 255.472656 270.25 252.632812 270.734375 249.464844 270.734375 C 242.445312 270.734375 236.953125 268.429688 232.996094 263.824219 C 229.035156 259.21875 227.054688 254.011719 227.054688 248.203125 C 227.054688 242.738281 228.730469 237.867188 232.082031 233.59375 C 236.332031 228.15625 242.023438 225.4375 249.148438 225.4375 C 256.488281 225.4375 262.347656 228.21875 266.730469 233.789062 C 269.84375 237.722656 271.429688 242.632812 271.480469 248.519531 L 232.757812 248.519531 C 232.863281 253.535156 234.460938 257.648438 237.546875 260.855469 C 240.636719 264.0625 244.449219 265.664062 248.992188 265.664062 C 251.183594 265.664062 253.3125 265.28125 255.386719 264.515625 C 257.457031 263.75 259.21875 262.734375 260.671875 261.46875 C 262.125 260.199219 263.695312 258.15625 265.382812 255.332031 Z M 265.382812 243.730469 C 264.644531 240.773438 263.570312 238.410156 262.15625 236.640625 C 260.746094 234.871094 258.875 233.449219 256.554688 232.363281 C 254.230469 231.28125 251.789062 230.742188 249.230469 230.742188 C 245.003906 230.742188 241.375 232.101562 238.339844 234.820312 C 236.121094 236.800781 234.445312 239.769531 233.3125 243.730469 C 233.3125 243.730469 265.382812 243.730469 265.382812 243.730469 Z M 265.382812 243.730469 "/>
<path style=" stroke:none;fill-rule:nonzero;fill:rgb(100%,100%,100%);fill-opacity:1;" d="M 331.636719 226.542969 L 331.636719 269.625 L 326.175781 269.625 L 326.175781 262.21875 C 323.851562 265.042969 321.246094 267.167969 318.355469 268.59375 C 315.464844 270.019531 312.300781 270.734375 308.871094 270.734375 C 302.773438 270.734375 297.566406 268.523438 293.25 264.101562 C 288.933594 259.679688 286.777344 254.300781 286.777344 247.964844 C 286.777344 241.761719 288.953125 236.457031 293.308594 232.046875 C 297.664062 227.640625 302.90625 225.4375 309.027344 225.4375 C 312.566406 225.4375 315.765625 226.1875 318.628906 227.691406 C 321.496094 229.199219 324.007812 231.453125 326.175781 234.464844 L 326.175781 226.542969 C 326.175781 226.542969 331.636719 226.542969 331.636719 226.542969 Z M 309.464844 230.78125 C 306.375 230.78125 303.523438 231.539062 300.910156 233.058594 C 298.296875 234.574219 296.21875 236.707031 294.675781 239.453125 C 293.132812 242.199219 292.359375 245.101562 292.359375 248.164062 C 292.359375 251.199219 293.136719 254.101562 294.695312 256.875 C 296.253906 259.648438 298.34375 261.804688 300.972656 263.347656 C 303.597656 264.894531 306.414062 265.664062 309.425781 265.664062 C 312.460938 265.664062 315.335938 264.898438 318.058594 263.367188 C 320.777344 261.835938 322.867188 259.765625 324.332031 257.152344 C 325.796875 254.539062 326.53125 251.59375 326.53125 248.320312 C 326.53125 243.332031 324.886719 239.164062 321.601562 235.808594 C 318.3125 232.457031 314.269531 230.78125 309.464844 230.78125 Z M 309.464844 230.78125 "/>
<path style=" stroke:none;fill-rule:nonzero;fill:rgb(100%,100%,100%);fill-opacity:1;" d="M 350.179688 209.914062 L 355.722656 209.914062 L 355.722656 269.625 L 350.179688 269.625 C 350.179688 269.625 350.179688 209.914062 350.179688 209.914062 Z M 350.179688 209.914062 "/>
<path style=" stroke:none;fill-rule:nonzero;fill:rgb(100%,100%,100%);fill-opacity:1;" d="M 378.976562 210.546875 L 384.558594 210.546875 L 384.558594 226.542969 L 393.347656 226.542969 L 393.347656 231.296875 L 384.558594 231.296875 L 384.558594 269.625 L 378.976562 269.625 L 378.976562 231.296875 L 371.414062 231.296875 L 371.414062 226.542969 L 378.976562 226.542969 C 378.976562 226.542969 378.976562 210.546875 378.976562 210.546875 Z M 378.976562 210.546875 "/>
<path style=" stroke:none;fill-rule:nonzero;fill:rgb(100%,100%,100%);fill-opacity:1;" d="M 408.523438 209.914062 L 414.066406 209.914062 L 414.066406 234.265625 C 416.3125 231.308594 418.78125 229.097656 421.472656 227.632812 C 424.164062 226.167969 427.082031 225.4375 430.222656 225.4375 C 433.445312 225.4375 436.300781 226.253906 438.796875 227.890625 C 441.289062 229.527344 443.132812 231.726562 444.320312 234.484375 C 445.507812 237.242188 446.101562 241.566406 446.101562 247.449219 L 446.101562 269.625 L 440.558594 269.625 L 440.558594 249.074219 C 440.558594 244.113281 440.359375 240.800781 439.964844 239.136719 C 439.277344 236.285156 438.03125 234.140625 436.222656 232.703125 C 434.414062 231.261719 432.042969 230.542969 429.113281 230.542969 C 425.761719 230.542969 422.757812 231.652344 420.105469 233.871094 C 417.453125 236.085938 415.703125 238.832031 414.859375 242.105469 C 414.332031 244.21875 414.066406 248.125 414.066406 253.824219 L 414.066406 269.625 L 408.523438 269.625 C 408.523438 269.625 408.523438 209.914062 408.523438 209.914062 Z M 408.523438 209.914062 "/>
<g clip-path="url(#clip2)" clip-rule="nonzero">
<path style=" stroke:none;fill-rule:nonzero;fill:rgb(100%,100%,100%);fill-opacity:1;" d="M 460.246094 226.542969 L 466.109375 226.542969 L 480.917969 259.726562 L 495.289062 226.542969 L 501.191406 226.542969 L 475.492188 285.382812 L 469.632812 285.382812 L 477.945312 266.378906 C 477.945312 266.378906 460.246094 226.542969 460.246094 226.542969 Z M 460.246094 226.542969 "/>
</g>
<path style=" stroke:none;fill-rule:nonzero;fill:rgb(100%,100%,100%);fill-opacity:1;" d="M 545.519531 211.378906 L 551.378906 211.378906 L 551.378906 264.003906 L 573.75 264.003906 L 573.75 269.625 L 545.519531 269.625 C 545.519531 269.625 545.519531 211.378906 545.519531 211.378906 Z M 545.519531 211.378906 "/>
<path style=" stroke:none;fill-rule:nonzero;fill:rgb(100%,100%,100%);fill-opacity:1;" d="M 590.90625 208.804688 C 592.171875 208.804688 593.253906 209.253906 594.152344 210.152344 C 595.050781 211.050781 595.5 212.132812 595.5 213.398438 C 595.5 214.640625 595.050781 215.707031 594.152344 216.605469 C 593.253906 217.503906 592.171875 217.953125 590.90625 217.953125 C 589.664062 217.953125 588.59375 217.503906 587.699219 216.605469 C 586.800781 215.707031 586.351562 214.640625 586.351562 213.398438 C 586.351562 212.132812 586.800781 211.050781 587.699219 210.152344 C 588.59375 209.253906 589.664062 208.804688 590.90625 208.804688 Z M 588.132812 226.542969 L 593.714844 226.542969 L 593.714844 269.625 L 588.132812 269.625 C 588.132812 269.625 588.132812 226.542969 588.132812 226.542969 Z M 588.132812 226.542969 "/>
<path style=" stroke:none;fill-rule:nonzero;fill:rgb(100%,100%,100%);fill-opacity:1;" d="M 629.839844 209.914062 L 629.839844 215.339844 C 627.804688 214.46875 626.0625 214.03125 624.613281 214.03125 C 623.53125 214.03125 622.632812 214.25 621.917969 214.683594 C 621.207031 215.121094 620.757812 215.621094 620.574219 216.191406 C 620.386719 216.757812 620.296875 218.269531 620.296875 220.722656 L 620.296875 226.542969 L 629.285156 226.542969 L 629.285156 231.296875 L 620.257812 231.296875 L 620.257812 269.625 L 614.710938 269.625 L 614.710938 231.296875 L 609.050781 231.296875 L 609.050781 226.542969 L 614.710938 226.542969 L 614.710938 219.8125 C 614.710938 216.722656 614.996094 214.519531 615.5625 213.199219 C 616.132812 211.878906 617.09375 210.816406 618.453125 210.011719 C 619.8125 209.207031 621.457031 208.804688 623.382812 208.804688 C 625.179688 208.804688 627.332031 209.175781 629.839844 209.914062 Z M 629.839844 209.914062 "/>
<path style=" stroke:none;fill-rule:nonzero;fill:rgb(100%,100%,100%);fill-opacity:1;" d="M 680.730469 255.332031 L 685.402344 257.785156 C 683.871094 260.792969 682.101562 263.222656 680.097656 265.070312 C 678.089844 266.917969 675.832031 268.324219 673.324219 269.289062 C 670.816406 270.25 667.980469 270.734375 664.8125 270.734375 C 657.789062 270.734375 652.300781 268.429688 648.339844 263.824219 C 644.378906 259.21875 642.402344 254.011719 642.402344 248.203125 C 642.402344 242.738281 644.078125 237.867188 647.429688 233.59375 C 651.679688 228.15625 657.367188 225.4375 664.496094 225.4375 C 671.832031 225.4375 677.695312 228.21875 682.074219 233.789062 C 685.191406 237.722656 686.773438 242.632812 686.828125 248.519531 L 648.101562 248.519531 C 648.207031 253.535156 649.804688 257.648438 652.894531 260.855469 C 655.980469 264.0625 659.796875 265.664062 664.335938 265.664062 C 666.527344 265.664062 668.660156 265.28125 670.730469 264.515625 C 672.804688 263.75 674.566406 262.734375 676.015625 261.46875 C 677.46875 260.199219 679.039062 258.15625 680.730469 255.332031 Z M 680.730469 243.730469 C 679.992188 240.773438 678.914062 238.410156 677.503906 236.640625 C 676.089844 234.871094 674.222656 233.449219 671.898438 232.363281 C 669.578125 231.28125 667.136719 230.742188 664.574219 230.742188 C 660.351562 230.742188 656.722656 232.101562 653.683594 234.820312 C 651.46875 236.800781 649.792969 239.769531 648.65625 243.730469 C 648.65625 243.730469 680.730469 243.730469 680.730469 243.730469 Z M 680.730469 243.730469 "/>
</g>
</defs>
<g id="surface1">
<use xlink:href="#surface5" transform="matrix(1,0,0,1,69,309)"/>
</g>
</svg>
