<?xml version="1.0" encoding="UTF-8"?>
<svg xmlns="http://www.w3.org/2000/svg" xmlns:xlink="http://www.w3.org/1999/xlink" width="850.5pt" height="850.5pt" viewBox="0 0 850.5 850.5" version="1.1">
<defs>
<clipPath id="clip2">
  <path d="M 0 323 L 341 323 L 341 724.5 L 0 724.5 Z M 0 323 "/>
</clipPath>
<clipPath id="clip3">
  <path d="M 40 0.5 L 408 0.5 L 408 402 L 40 402 Z M 40 0.5 "/>
</clipPath>
<clipPath id="clip1">
  <rect x="0" y="0" width="680" height="725"/>
</clipPath>
<g id="surface5" clip-path="url(#clip1)">
<g clip-path="url(#clip2)" clip-rule="nonzero">
<path style=" stroke:none;fill-rule:nonzero;fill:rgb(16.862488%,0%,60.784912%);fill-opacity:1;" d="M 0.785156 323.496094 L 340.050781 323.496094 L 340.050781 724.261719 L 0.785156 724.261719 C 0.785156 724.261719 0.785156 323.496094 0.785156 323.496094 Z M 0.785156 323.496094 "/>
</g>
<path style=" stroke:none;fill-rule:nonzero;fill:rgb(56.863403%,39.215088%,86.274719%);fill-opacity:1;" d="M 300.222656 289.480469 L 666.902344 289.480469 L 666.902344 690.246094 L 300.222656 690.246094 C 300.222656 690.246094 300.222656 289.480469 300.222656 289.480469 Z M 300.222656 289.480469 "/>
<g clip-path="url(#clip3)" clip-rule="nonzero">
<path style=" stroke:none;fill-rule:nonzero;fill:rgb(25.097656%,59.608459%,70.588684%);fill-opacity:1;" d="M 40.554688 0.851562 L 407.234375 0.851562 L 407.234375 401.621094 L 40.554688 401.621094 C 40.554688 401.621094 40.554688 0.851562 40.554688 0.851562 Z M 40.554688 0.851562 "/>
</g>
<path style=" stroke:none;fill-rule:nonzero;fill:rgb(37.646484%,71.765137%,69.020081%);fill-opacity:1;" d="M 392.5625 44.589844 L 679.734375 44.589844 L 679.734375 402.957031 L 392.5625 402.957031 C 392.5625 402.957031 392.5625 44.589844 392.5625 44.589844 Z M 392.5625 44.589844 "/>
<path style=" stroke:none;fill-rule:nonzero;fill:rgb(40.391541%,69.804382%,67.059326%);fill-opacity:1;" d="M 446.617188 362.914062 L 447.84375 362.914062 L 447.84375 365.980469 L 446.617188 365.980469 C 446.617188 365.980469 446.617188 362.914062 446.617188 362.914062 Z M 446.617188 362.914062 "/>
<path style=" stroke:none;fill-rule:nonzero;fill:rgb(100%,100%,100%);fill-opacity:1;" d="M 80.339844 348.46875 C 81.183594 348.65625 82.214844 348.84375 83.429688 349.03125 C 84.648438 349.214844 85.960938 349.402344 87.363281 349.589844 C 88.769531 349.777344 90.222656 349.941406 91.71875 350.082031 C 93.21875 350.222656 94.621094 350.292969 95.933594 350.292969 C 101.554688 350.292969 106.585938 349.824219 111.035156 348.890625 C 115.484375 347.953125 119.558594 346.453125 123.257812 344.394531 C 126.957031 342.332031 130.445312 339.710938 133.726562 336.527344 C 137.003906 333.339844 140.328125 329.5 143.699219 325.007812 L 145.246094 326.269531 L 132.460938 354.507812 C 130.867188 354.320312 129.230469 354.179688 127.542969 354.085938 C 125.859375 353.992188 124.21875 353.945312 122.625 353.945312 L 69.804688 353.945312 C 67.085938 353.945312 64.371094 353.992188 61.65625 354.085938 C 58.9375 354.179688 56.222656 354.320312 53.507812 354.507812 L 53.507812 352.824219 C 56.878906 352.542969 59.5 352.027344 61.375 351.277344 C 63.246094 350.527344 64.652344 349.355469 65.589844 347.765625 C 66.523438 346.171875 67.109375 344.089844 67.34375 341.511719 C 67.578125 338.9375 67.695312 335.683594 67.695312 331.75 L 67.695312 284.828125 C 67.695312 280.894531 67.578125 277.640625 67.34375 275.0625 C 67.109375 272.488281 66.523438 270.402344 65.589844 268.8125 C 64.652344 267.21875 63.199219 266.046875 61.234375 265.300781 C 59.265625 264.550781 56.597656 264.035156 53.226562 263.753906 L 53.226562 262.066406 C 56.410156 262.160156 59.429688 262.253906 62.289062 262.347656 C 65.144531 262.441406 68.09375 262.511719 71.136719 262.558594 C 74.183594 262.605469 77.414062 262.628906 80.832031 262.628906 C 84.25 262.628906 88.113281 262.628906 92.421875 262.628906 C 98.976562 262.628906 105.535156 262.582031 112.089844 262.488281 C 118.644531 262.394531 125.296875 262.253906 132.039062 262.066406 C 131.945312 263.097656 131.875 264.128906 131.828125 265.160156 C 131.78125 266.1875 131.757812 267.171875 131.757812 268.109375 L 131.757812 273.726562 C 131.757812 275.789062 131.851562 277.871094 132.039062 279.980469 C 132.226562 282.085938 132.414062 284.40625 132.601562 286.933594 L 130.773438 287.496094 C 129.558594 283 127.941406 279.324219 125.929688 276.46875 C 123.914062 273.613281 121.574219 271.386719 118.902344 269.792969 C 116.234375 268.203125 113.308594 267.125 110.125 266.5625 C 106.9375 266 103.566406 265.71875 100.007812 265.71875 C 93.453125 265.71875 86.894531 266 80.339844 266.5625 L 80.339844 301.683594 C 82.214844 301.683594 84.015625 301.636719 85.75 301.542969 C 87.480469 301.453125 89.285156 301.40625 91.15625 301.40625 C 97.621094 301.40625 102.746094 300.117188 106.539062 297.539062 C 110.332031 294.964844 112.652344 290.257812 113.496094 283.421875 L 115.179688 283.421875 C 115.179688 286.792969 115.132812 290.164062 115.039062 293.535156 C 114.945312 296.910156 114.898438 300.234375 114.898438 303.511719 C 114.898438 306.882812 114.945312 310.253906 115.039062 313.625 C 115.132812 317 115.179688 320.371094 115.179688 323.742188 L 113.496094 323.742188 C 112.652344 319.808594 111.621094 316.601562 110.402344 314.117188 C 109.1875 311.636719 107.664062 309.738281 105.839844 308.429688 C 104.011719 307.117188 101.742188 306.226562 99.023438 305.757812 C 96.308594 305.292969 93.078125 305.058594 89.332031 305.058594 L 80.339844 305.058594 C 80.339844 305.058594 80.339844 348.46875 80.339844 348.46875 Z M 80.339844 348.46875 "/>
<path style=" stroke:none;fill-rule:nonzero;fill:rgb(100%,100%,100%);fill-opacity:1;" d="M 229.46875 288.761719 C 228.25 285.761719 226.679688 282.789062 224.761719 279.839844 C 222.839844 276.890625 220.617188 274.265625 218.085938 271.972656 C 215.558594 269.675781 212.75 267.828125 209.660156 266.421875 C 206.566406 265.019531 203.195312 264.316406 199.542969 264.316406 C 194.203125 264.316406 189.828125 265.300781 186.40625 267.265625 C 182.988281 269.234375 181.28125 272.746094 181.28125 277.800781 C 181.28125 280.800781 182.054688 283.398438 183.597656 285.597656 C 185.144531 287.800781 187.203125 289.742188 189.78125 291.429688 C 192.355469 293.117188 195.28125 294.660156 198.558594 296.066406 C 201.839844 297.46875 205.1875 298.898438 208.605469 300.351562 C 212.023438 301.800781 215.371094 303.371094 218.648438 305.058594 C 221.925781 306.742188 224.855469 308.757812 227.429688 311.097656 C 230.003906 313.4375 232.066406 316.15625 233.613281 319.246094 C 235.15625 322.335938 235.929688 326.035156 235.929688 330.34375 C 235.929688 334.933594 235.085938 338.890625 233.402344 342.214844 C 231.714844 345.539062 229.445312 348.28125 226.585938 350.433594 C 223.730469 352.589844 220.40625 354.179688 216.613281 355.210938 C 212.820312 356.242188 208.769531 356.757812 204.460938 356.757812 C 202.117188 356.757812 199.683594 356.546875 197.15625 356.125 C 194.625 355.703125 192.191406 355.234375 189.851562 354.71875 C 187.507812 354.203125 185.378906 353.734375 183.457031 353.3125 C 181.539062 352.894531 180.015625 352.683594 178.890625 352.683594 C 177.863281 352.683594 176.878906 352.847656 175.941406 353.171875 C 175.003906 353.5 174.023438 353.851562 172.992188 354.226562 C 172.148438 348.890625 171.164062 343.667969 170.042969 338.5625 C 168.917969 333.457031 167.746094 328.238281 166.527344 322.898438 L 168.355469 321.914062 C 170.042969 325.195312 172.078125 328.613281 174.464844 332.171875 C 176.855469 335.730469 179.546875 338.984375 182.542969 341.933594 C 185.542969 344.886719 188.84375 347.34375 192.449219 349.308594 C 196.054688 351.277344 199.964844 352.261719 204.179688 352.261719 C 206.894531 352.261719 209.519531 351.957031 212.046875 351.347656 C 214.574219 350.738281 216.800781 349.777344 218.71875 348.46875 C 220.640625 347.15625 222.160156 345.445312 223.285156 343.339844 C 224.410156 341.230469 224.972656 338.632812 224.972656 335.542969 C 224.972656 331.140625 223.613281 327.464844 220.898438 324.515625 C 218.179688 321.5625 214.808594 318.988281 210.78125 316.789062 C 206.753906 314.585938 202.375 312.550781 197.648438 310.675781 C 192.917969 308.804688 188.539062 306.695312 184.511719 304.355469 C 180.484375 302.011719 177.113281 299.25 174.394531 296.066406 C 171.679688 292.882812 170.320312 288.855469 170.320312 283.984375 C 170.320312 280.332031 171.023438 277.007812 172.429688 274.007812 C 173.835938 271.011719 175.730469 268.460938 178.117188 266.351562 C 180.507812 264.246094 183.269531 262.628906 186.40625 261.507812 C 189.546875 260.382812 192.894531 259.820312 196.453125 259.820312 C 199.917969 259.820312 203.03125 260.054688 205.796875 260.523438 C 208.558594 260.992188 211.25 261.507812 213.871094 262.066406 C 216.589844 262.628906 219.257812 263.167969 221.878906 263.683594 C 224.503906 264.199219 227.3125 264.457031 230.308594 264.457031 C 230.308594 268.671875 230.378906 272.769531 230.519531 276.75 C 230.660156 280.730469 230.964844 284.734375 231.433594 288.761719 C 231.433594 288.761719 229.46875 288.761719 229.46875 288.761719 Z M 229.46875 288.761719 "/>
<path style=" stroke:none;fill-rule:nonzero;fill:rgb(100%,100%,100%);fill-opacity:1;" d="M 262.269531 262.066406 C 265.550781 262.253906 268.664062 262.394531 271.613281 262.488281 C 274.5625 262.582031 278.003906 262.628906 281.9375 262.628906 C 284 262.628906 286.011719 262.582031 287.980469 262.488281 C 289.945312 262.394531 291.960938 262.253906 294.019531 262.066406 C 295.238281 263.753906 297.253906 266.304688 300.0625 269.722656 C 302.871094 273.144531 306.078125 277.054688 309.683594 281.457031 C 313.292969 285.855469 317.15625 290.539062 321.277344 295.503906 C 325.398438 300.46875 329.378906 305.316406 333.21875 310.042969 C 337.058594 314.773438 340.59375 319.175781 343.824219 323.25 C 347.054688 327.324219 349.605469 330.671875 351.480469 333.292969 L 351.761719 333.292969 C 351.761719 330.484375 351.785156 327.699219 351.832031 324.9375 C 351.878906 322.171875 351.902344 319.386719 351.902344 316.578125 L 351.902344 300.28125 C 351.902344 294.285156 351.691406 289.066406 351.269531 284.617188 C 350.847656 280.167969 350.003906 276.445312 348.742188 273.449219 C 347.476562 270.449219 345.695312 268.15625 343.402344 266.5625 C 341.109375 264.972656 338.085938 264.035156 334.339844 263.753906 L 334.339844 262.066406 C 337.617188 262.253906 340.921875 262.394531 344.246094 262.488281 C 347.570312 262.582031 350.871094 262.628906 354.148438 262.628906 C 357.148438 262.628906 360.191406 262.582031 363.28125 262.488281 C 366.371094 262.394531 369.414062 262.253906 372.414062 262.066406 L 372.414062 263.753906 C 366.511719 264.503906 362.460938 266.210938 360.261719 268.882812 C 358.058594 271.550781 356.960938 275.648438 356.960938 281.175781 L 356.960938 355.632812 L 351.761719 355.632812 C 346.609375 347.578125 341.15625 339.757812 335.394531 332.171875 C 329.632812 324.585938 323.921875 317.371094 318.253906 310.535156 C 312.589844 303.699219 307.109375 297.355469 301.816406 291.5 C 296.527344 285.644531 291.773438 280.425781 287.558594 275.835938 C 287.464844 278.269531 287.394531 280.660156 287.347656 283 C 287.300781 285.34375 287.277344 287.730469 287.277344 290.164062 L 287.277344 314.75 C 287.277344 323.085938 287.441406 329.664062 287.769531 334.488281 C 288.097656 339.3125 288.894531 343.011719 290.15625 345.585938 C 291.421875 348.164062 293.296875 349.894531 295.777344 350.785156 C 298.257812 351.675781 301.703125 352.355469 306.101562 352.824219 L 306.101562 354.507812 C 301.328125 354.320312 296.691406 354.179688 292.195312 354.085938 C 287.699219 353.992188 283.0625 353.945312 278.285156 353.945312 C 275.570312 353.945312 272.902344 353.992188 270.277344 354.085938 C 267.65625 354.179688 264.988281 354.320312 262.269531 354.507812 L 262.269531 352.824219 C 265.457031 352.355469 268.242188 351.910156 270.628906 351.488281 C 273.019531 351.066406 274.984375 350.363281 276.53125 349.378906 C 278.074219 348.398438 279.246094 346.992188 280.042969 345.164062 C 280.839844 343.339844 281.285156 340.789062 281.378906 337.507812 L 283.0625 273.027344 C 280.066406 270.589844 276.789062 268.671875 273.230469 267.265625 C 269.671875 265.859375 266.015625 264.691406 262.269531 263.753906 C 262.269531 263.753906 262.269531 262.066406 262.269531 262.066406 Z M 262.269531 262.066406 "/>
<path style=" stroke:none;fill-rule:nonzero;fill:rgb(100%,100%,100%);fill-opacity:1;" d="M 421.371094 313.34375 L 412.101562 338.773438 C 411.820312 339.523438 411.5625 340.179688 411.328125 340.742188 C 411.09375 341.300781 410.976562 341.910156 410.976562 342.566406 C 410.976562 344.253906 411.46875 345.703125 412.453125 346.921875 C 413.433594 348.140625 414.628906 349.148438 416.035156 349.941406 C 417.4375 350.738281 418.890625 351.371094 420.390625 351.839844 C 421.886719 352.308594 423.152344 352.636719 424.183594 352.824219 L 424.183594 354.507812 C 421.371094 354.320312 418.5625 354.179688 415.753906 354.085938 C 412.945312 353.992188 410.085938 353.945312 407.183594 353.945312 C 404.375 353.945312 401.632812 353.992188 398.964844 354.085938 C 396.296875 354.179688 393.464844 354.320312 390.464844 354.507812 L 390.464844 352.824219 C 393.371094 352.167969 395.78125 351.160156 397.699219 349.800781 C 399.621094 348.445312 401.238281 346.828125 402.546875 344.957031 C 403.859375 343.082031 405.007812 341.023438 405.988281 338.773438 C 406.972656 336.527344 407.933594 334.183594 408.871094 331.75 L 433.171875 272.042969 C 433.453125 271.386719 433.710938 270.777344 433.945312 270.214844 C 434.179688 269.65625 434.296875 269.140625 434.296875 268.671875 C 434.296875 268.203125 434.132812 267.5 433.804688 266.5625 C 433.476562 265.628906 433.082031 264.785156 432.613281 264.035156 C 435.046875 263.566406 437.15625 262.957031 438.933594 262.207031 C 440.714844 261.460938 442.679688 260.664062 444.835938 259.820312 L 474.054688 340.179688 C 475.367188 343.832031 477.191406 346.710938 479.535156 348.820312 C 481.875 350.925781 485.339844 352.261719 489.929688 352.824219 L 489.929688 354.507812 C 486.183594 354.320312 482.507812 354.179688 478.902344 354.085938 C 475.296875 353.992188 471.527344 353.945312 467.59375 353.945312 C 465.0625 353.945312 462.863281 353.945312 460.988281 353.945312 C 459.117188 353.945312 457.429688 353.96875 455.933594 354.015625 C 454.433594 354.0625 453.007812 354.132812 451.648438 354.226562 C 450.289062 354.320312 448.816406 354.414062 447.222656 354.507812 L 447.222656 352.824219 C 451.15625 352.355469 454.457031 351.347656 457.125 349.800781 C 459.796875 348.257812 461.128906 346.171875 461.128906 343.550781 C 461.128906 342.800781 460.96875 342.050781 460.640625 341.300781 C 460.3125 340.554688 460.054688 339.851562 459.867188 339.195312 L 450.734375 313.34375 C 450.734375 313.34375 421.371094 313.34375 421.371094 313.34375 Z M 436.546875 273.449219 L 422.777344 309.132812 L 449.1875 309.132812 C 449.1875 309.132812 436.546875 273.449219 436.546875 273.449219 Z M 436.546875 273.449219 "/>
<path style=" stroke:none;fill-rule:nonzero;fill:rgb(100%,100%,100%);fill-opacity:1;" d="M 511.355469 352.824219 C 514.445312 352.542969 516.90625 352.027344 518.730469 351.277344 C 520.558594 350.527344 521.960938 349.660156 522.945312 348.679688 C 523.929688 347.695312 524.5625 346.640625 524.84375 345.515625 C 525.121094 344.394531 525.261719 343.269531 525.261719 342.144531 L 525.261719 277.242188 C 525.261719 275.179688 525.144531 273.378906 524.914062 271.832031 C 524.679688 270.285156 524.09375 268.953125 523.15625 267.828125 C 522.21875 266.703125 520.816406 265.8125 518.941406 265.160156 C 517.066406 264.503906 514.539062 264.035156 511.355469 263.753906 L 511.355469 262.066406 C 513.789062 262.253906 516.226562 262.394531 518.660156 262.488281 C 521.09375 262.582031 523.53125 262.628906 525.964844 262.628906 C 532.523438 262.628906 538.609375 262.300781 544.230469 261.648438 C 549.847656 260.992188 555.609375 260.664062 561.507812 260.664062 C 569.09375 260.664062 576.214844 261.832031 582.863281 264.175781 C 589.511719 266.515625 595.34375 269.863281 600.355469 274.21875 C 605.363281 278.574219 609.320312 283.84375 612.226562 290.023438 C 615.128906 296.207031 616.578125 303.136719 616.578125 310.816406 C 616.578125 318.589844 615.175781 325.21875 612.363281 330.695312 C 609.554688 336.175781 605.808594 340.671875 601.125 344.183594 C 596.445312 347.695312 591.082031 350.246094 585.039062 351.839844 C 579 353.429688 572.699219 354.226562 566.144531 354.226562 C 561.085938 354.226562 556.757812 354.203125 553.148438 354.15625 C 549.542969 354.109375 546.382812 354.085938 543.667969 354.085938 C 540.949219 354.085938 538.515625 354.0625 536.363281 354.015625 C 534.207031 353.96875 532.148438 353.945312 530.179688 353.945312 C 526.996094 353.945312 523.859375 353.992188 520.769531 354.085938 C 517.675781 354.179688 514.539062 354.320312 511.355469 354.507812 C 511.355469 354.507812 511.355469 352.824219 511.355469 352.824219 Z M 537.90625 343.269531 C 540.90625 346.078125 544.347656 348.046875 548.234375 349.167969 C 552.121094 350.292969 556.03125 350.855469 559.964844 350.855469 C 574.386719 350.855469 584.898438 347.15625 591.503906 339.757812 C 598.105469 332.359375 601.40625 321.632812 601.40625 307.585938 C 601.40625 301.496094 600.308594 295.808594 598.105469 290.515625 C 595.90625 285.226562 592.859375 280.613281 588.972656 276.679688 C 585.085938 272.746094 580.453125 269.65625 575.066406 267.40625 C 569.679688 265.160156 563.804688 264.035156 557.433594 264.035156 C 550.878906 264.035156 544.652344 265.347656 538.75 267.96875 C 538.375 272.839844 538.140625 277.683594 538.046875 282.507812 C 537.953125 287.332031 537.90625 292.273438 537.90625 297.332031 C 537.90625 297.332031 537.90625 343.269531 537.90625 343.269531 Z M 537.90625 343.269531 "/>
<path style=" stroke:none;fill-rule:nonzero;fill:rgb(100%,100%,100%);fill-opacity:1;" d="M 77.382812 446.964844 C 78.6875 446.859375 79.703125 446.660156 80.429688 446.367188 C 81.152344 446.078125 81.703125 445.625 82.085938 445.011719 C 82.464844 444.394531 82.703125 443.589844 82.792969 442.59375 C 82.882812 441.59375 82.929688 440.335938 82.929688 438.816406 L 82.929688 413.597656 C 81.007812 413.597656 79.40625 413.667969 78.117188 413.816406 C 76.832031 413.960938 75.71875 414.332031 74.777344 414.929688 C 73.832031 415.527344 73.007812 416.441406 72.304688 417.671875 C 71.597656 418.90625 70.898438 420.589844 70.210938 422.726562 L 69.503906 422.511719 L 70.265625 411.859375 C 71.785156 411.929688 73.289062 411.984375 74.777344 412.019531 C 76.261719 412.058594 77.765625 412.074219 79.285156 412.074219 L 92.058594 412.074219 C 93.507812 412.074219 94.9375 412.058594 96.351562 412.019531 C 97.765625 411.984375 99.195312 411.929688 100.644531 411.859375 L 101.40625 422.511719 L 100.699219 422.726562 C 100.011719 420.589844 99.3125 418.90625 98.605469 417.671875 C 97.902344 416.441406 97.078125 415.527344 96.132812 414.929688 C 95.191406 414.332031 94.058594 413.960938 92.738281 413.816406 C 91.414062 413.667969 89.777344 413.597656 87.820312 413.597656 L 87.820312 438.816406 C 87.820312 440.335938 87.863281 441.59375 87.953125 442.59375 C 88.046875 443.589844 88.28125 444.394531 88.660156 445.011719 C 89.042969 445.625 89.613281 446.078125 90.375 446.367188 C 91.132812 446.660156 92.183594 446.859375 93.527344 446.964844 L 93.527344 447.617188 C 92.148438 447.546875 90.773438 447.492188 89.394531 447.457031 C 88.019531 447.417969 86.640625 447.402344 85.265625 447.402344 C 83.925781 447.402344 82.601562 447.417969 81.296875 447.457031 C 79.992188 447.492188 78.6875 447.546875 77.382812 447.617188 C 77.382812 447.617188 77.382812 446.964844 77.382812 446.964844 Z M 77.382812 446.964844 "/>
<path style=" stroke:none;fill-rule:nonzero;fill:rgb(100%,100%,100%);fill-opacity:1;" d="M 162.035156 431.695312 L 158.449219 441.53125 C 158.339844 441.820312 158.238281 442.074219 158.148438 442.292969 C 158.058594 442.511719 158.011719 442.746094 158.011719 443 C 158.011719 443.652344 158.203125 444.214844 158.582031 444.683594 C 158.964844 445.15625 159.425781 445.542969 159.96875 445.851562 C 160.511719 446.160156 161.074219 446.40625 161.65625 446.585938 C 162.234375 446.765625 162.722656 446.894531 163.121094 446.964844 L 163.121094 447.617188 C 162.035156 447.546875 160.949219 447.492188 159.859375 447.457031 C 158.773438 447.417969 157.667969 447.402344 156.546875 447.402344 C 155.457031 447.402344 154.398438 447.417969 153.367188 447.457031 C 152.332031 447.492188 151.238281 447.546875 150.078125 447.617188 L 150.078125 446.964844 C 151.203125 446.714844 152.132812 446.324219 152.878906 445.796875 C 153.621094 445.273438 154.246094 444.648438 154.753906 443.921875 C 155.257812 443.199219 155.703125 442.402344 156.082031 441.53125 C 156.464844 440.664062 156.835938 439.757812 157.199219 438.816406 L 166.601562 415.71875 C 166.707031 415.464844 166.808594 415.226562 166.898438 415.011719 C 166.988281 414.792969 167.035156 414.59375 167.035156 414.414062 C 167.035156 414.230469 166.972656 413.960938 166.84375 413.597656 C 166.71875 413.234375 166.5625 412.910156 166.382812 412.621094 C 167.324219 412.4375 168.140625 412.203125 168.828125 411.914062 C 169.515625 411.621094 170.277344 411.316406 171.109375 410.988281 L 182.414062 442.074219 C 182.921875 443.488281 183.628906 444.601562 184.535156 445.417969 C 185.441406 446.234375 186.78125 446.75 188.554688 446.964844 L 188.554688 447.617188 C 187.105469 447.546875 185.683594 447.492188 184.289062 447.457031 C 182.894531 447.417969 181.4375 447.402344 179.914062 447.402344 C 178.9375 447.402344 178.085938 447.402344 177.359375 447.402344 C 176.636719 447.402344 175.984375 447.410156 175.402344 447.429688 C 174.824219 447.445312 174.273438 447.472656 173.746094 447.511719 C 173.222656 447.546875 172.652344 447.582031 172.035156 447.617188 L 172.035156 446.964844 C 173.554688 446.785156 174.832031 446.394531 175.867188 445.796875 C 176.898438 445.199219 177.414062 444.394531 177.414062 443.378906 C 177.414062 443.089844 177.351562 442.800781 177.226562 442.511719 C 177.097656 442.21875 177 441.949219 176.925781 441.695312 L 173.394531 431.695312 C 173.394531 431.695312 162.035156 431.695312 162.035156 431.695312 Z M 167.902344 416.261719 L 162.578125 430.066406 L 172.796875 430.066406 C 172.796875 430.066406 167.902344 416.261719 167.902344 416.261719 Z M 167.902344 416.261719 "/>
<path style=" stroke:none;fill-rule:nonzero;fill:rgb(100%,100%,100%);fill-opacity:1;" d="M 252.011719 438.816406 C 252.011719 440.335938 252.054688 441.59375 252.148438 442.59375 C 252.238281 443.589844 252.472656 444.394531 252.851562 445.011719 C 253.234375 445.625 253.804688 446.078125 254.566406 446.367188 C 255.328125 446.660156 256.375 446.859375 257.71875 446.964844 L 257.71875 447.617188 C 256.339844 447.546875 254.964844 447.492188 253.585938 447.457031 C 252.210938 447.417969 250.832031 447.402344 249.457031 447.402344 C 248.117188 447.402344 246.792969 447.417969 245.488281 447.457031 C 244.183594 447.492188 242.878906 447.546875 241.578125 447.617188 L 241.578125 446.964844 C 242.878906 446.859375 243.894531 446.660156 244.621094 446.367188 C 245.34375 446.078125 245.898438 445.625 246.277344 445.011719 C 246.65625 444.394531 246.894531 443.589844 246.984375 442.59375 C 247.074219 441.59375 247.121094 440.335938 247.121094 438.816406 L 247.121094 420.664062 C 247.121094 419.140625 247.074219 417.882812 246.984375 416.886719 C 246.894531 415.890625 246.65625 415.082031 246.277344 414.46875 C 245.898438 413.851562 245.328125 413.398438 244.566406 413.109375 C 243.804688 412.820312 242.773438 412.621094 241.46875 412.511719 L 241.46875 411.859375 C 242.988281 411.929688 244.464844 411.984375 245.898438 412.019531 C 247.328125 412.058594 248.804688 412.074219 250.328125 412.074219 C 251.523438 412.074219 252.71875 412.058594 253.914062 412.019531 C 255.109375 411.984375 256.285156 411.929688 257.445312 411.859375 L 257.445312 412.511719 C 256.175781 412.621094 255.179688 412.820312 254.457031 413.109375 C 253.730469 413.398438 253.1875 413.851562 252.828125 414.46875 C 252.464844 415.082031 252.238281 415.890625 252.148438 416.886719 C 252.054688 417.882812 252.011719 419.140625 252.011719 420.664062 L 252.011719 429.847656 L 260.273438 423.109375 C 261.03125 422.492188 261.757812 421.847656 262.445312 421.179688 C 263.132812 420.507812 263.742188 419.828125 264.265625 419.140625 C 264.792969 418.453125 265.207031 417.800781 265.515625 417.183594 C 265.824219 416.570312 265.976562 416.007812 265.976562 415.5 C 265.976562 414.957031 265.859375 414.496094 265.625 414.113281 C 265.390625 413.734375 265.082031 413.425781 264.699219 413.191406 C 264.320312 412.953125 263.894531 412.78125 263.425781 412.671875 C 262.953125 412.566406 262.480469 412.511719 262.011719 412.511719 L 262.011719 411.859375 C 263.386719 411.929688 264.738281 411.984375 266.058594 412.019531 C 267.382812 412.058594 268.730469 412.074219 270.109375 412.074219 C 271.558594 412.074219 273 412.058594 274.429688 412.019531 C 275.859375 411.984375 277.300781 411.929688 278.75 411.859375 L 278.75 412.511719 C 277.808594 412.621094 276.929688 412.800781 276.113281 413.054688 C 275.296875 413.308594 274.464844 413.679688 273.613281 414.167969 C 272.761719 414.65625 271.855469 415.273438 270.898438 416.015625 C 269.9375 416.757812 268.824219 417.671875 267.554688 418.761719 L 260.816406 424.519531 L 271.792969 440.664062 C 272.917969 442.257812 274.195312 443.667969 275.625 444.902344 C 277.054688 446.132812 278.730469 446.820312 280.652344 446.964844 L 280.652344 447.617188 C 279.09375 447.546875 277.535156 447.492188 275.976562 447.457031 C 274.421875 447.417969 272.863281 447.402344 271.304688 447.402344 C 269.890625 447.402344 268.488281 447.417969 267.09375 447.457031 C 265.699219 447.492188 264.292969 447.546875 262.878906 447.617188 L 262.878906 446.964844 C 264.183594 446.894531 265.316406 446.621094 266.277344 446.152344 C 267.238281 445.679688 267.71875 444.847656 267.71875 443.652344 C 267.71875 443.144531 267.519531 442.601562 267.121094 442.019531 C 266.722656 441.441406 266.160156 440.625 265.433594 439.574219 L 257.226562 427.511719 L 252.011719 431.585938 C 252.011719 431.585938 252.011719 438.816406 252.011719 438.816406 Z M 252.011719 438.816406 "/>
<path style=" stroke:none;fill-rule:nonzero;fill:rgb(100%,100%,100%);fill-opacity:1;" d="M 342.910156 431.695312 L 339.324219 441.53125 C 339.214844 441.820312 339.117188 442.074219 339.027344 442.292969 C 338.933594 442.511719 338.890625 442.746094 338.890625 443 C 338.890625 443.652344 339.078125 444.214844 339.460938 444.683594 C 339.839844 445.15625 340.300781 445.542969 340.847656 445.851562 C 341.390625 446.160156 341.949219 446.40625 342.53125 446.585938 C 343.109375 446.765625 343.597656 446.894531 344 446.964844 L 344 447.617188 C 342.910156 447.546875 341.824219 447.492188 340.738281 447.457031 C 339.652344 447.417969 338.546875 447.402344 337.421875 447.402344 C 336.335938 447.402344 335.277344 447.417969 334.242188 447.457031 C 333.210938 447.492188 332.113281 447.546875 330.953125 447.617188 L 330.953125 446.964844 C 332.078125 446.714844 333.011719 446.324219 333.753906 445.796875 C 334.496094 445.273438 335.121094 444.648438 335.628906 443.921875 C 336.136719 443.199219 336.578125 442.402344 336.960938 441.53125 C 337.339844 440.664062 337.710938 439.757812 338.074219 438.816406 L 347.476562 415.71875 C 347.585938 415.464844 347.683594 415.226562 347.773438 415.011719 C 347.867188 414.792969 347.910156 414.59375 347.910156 414.414062 C 347.910156 414.230469 347.847656 413.960938 347.722656 413.597656 C 347.59375 413.234375 347.441406 412.910156 347.257812 412.621094 C 348.199219 412.4375 349.015625 412.203125 349.703125 411.914062 C 350.394531 411.621094 351.152344 411.316406 351.988281 410.988281 L 363.292969 442.074219 C 363.796875 443.488281 364.503906 444.601562 365.410156 445.417969 C 366.316406 446.234375 367.65625 446.75 369.433594 446.964844 L 369.433594 447.617188 C 367.984375 447.546875 366.5625 447.492188 365.167969 447.457031 C 363.773438 447.417969 362.3125 447.402344 360.792969 447.402344 C 359.8125 447.402344 358.960938 447.402344 358.238281 447.402344 C 357.511719 447.402344 356.859375 447.410156 356.28125 447.429688 C 355.699219 447.445312 355.148438 447.472656 354.625 447.511719 C 354.097656 447.546875 353.527344 447.582031 352.910156 447.617188 L 352.910156 446.964844 C 354.433594 446.785156 355.710938 446.394531 356.742188 445.796875 C 357.773438 445.199219 358.292969 444.394531 358.292969 443.378906 C 358.292969 443.089844 358.226562 442.800781 358.101562 442.511719 C 357.972656 442.21875 357.875 441.949219 357.800781 441.695312 L 354.269531 431.695312 C 354.269531 431.695312 342.910156 431.695312 342.910156 431.695312 Z M 348.78125 416.261719 L 343.453125 430.066406 L 353.671875 430.066406 C 353.671875 430.066406 348.78125 416.261719 348.78125 416.261719 Z M 348.78125 416.261719 "/>
<path style=" stroke:none;fill-rule:nonzero;fill:rgb(100%,100%,100%);fill-opacity:1;" d="M 433.105469 439.738281 C 433.105469 441.1875 433.175781 442.320312 433.324219 443.136719 C 433.46875 443.949219 433.765625 444.59375 434.21875 445.066406 C 434.671875 445.535156 435.332031 445.898438 436.203125 446.152344 C 437.074219 446.40625 438.25 446.675781 439.734375 446.964844 L 439.734375 447.617188 C 438.175781 447.546875 436.636719 447.492188 435.117188 447.457031 C 433.59375 447.417969 432.054688 447.402344 430.496094 447.402344 C 429.15625 447.402344 427.824219 447.417969 426.5 447.457031 C 425.179688 447.492188 423.847656 447.546875 422.507812 447.617188 L 422.507812 446.964844 C 423.8125 446.859375 424.835938 446.660156 425.578125 446.367188 C 426.320312 446.078125 426.890625 445.625 427.289062 445.011719 C 427.6875 444.394531 427.941406 443.589844 428.050781 442.59375 C 428.160156 441.59375 428.214844 440.335938 428.214844 438.816406 L 428.214844 420.664062 C 428.214844 419.140625 428.160156 417.882812 428.050781 416.886719 C 427.941406 415.890625 427.6875 415.082031 427.289062 414.46875 C 426.890625 413.851562 426.320312 413.398438 425.578125 413.109375 C 424.835938 412.820312 423.8125 412.621094 422.507812 412.511719 L 422.507812 411.859375 C 423.015625 411.894531 423.683594 411.929688 424.519531 411.96875 C 425.351562 412.003906 426.210938 412.03125 427.097656 412.046875 C 427.988281 412.066406 428.839844 412.074219 429.652344 412.074219 C 430.46875 412.074219 431.128906 412.074219 431.636719 412.074219 L 443.429688 412.074219 C 445.277344 412.074219 446.910156 412.046875 448.320312 411.996094 C 449.734375 411.941406 451.21875 411.894531 452.777344 411.859375 C 452.707031 412.621094 452.652344 413.371094 452.617188 414.113281 C 452.578125 414.855469 452.5625 415.589844 452.5625 416.316406 C 452.5625 417.257812 452.578125 418.191406 452.617188 419.113281 C 452.652344 420.039062 452.707031 420.96875 452.777344 421.914062 L 451.910156 421.914062 C 451.328125 419.847656 450.578125 418.246094 449.652344 417.101562 C 448.730469 415.960938 447.644531 415.128906 446.394531 414.601562 C 445.144531 414.078125 443.722656 413.761719 442.125 413.652344 C 440.53125 413.542969 438.792969 413.488281 436.910156 413.488281 C 436.292969 413.488281 435.675781 413.507812 435.0625 413.542969 C 434.445312 413.578125 433.792969 413.597656 433.105469 413.597656 L 433.105469 427.074219 L 437.453125 427.074219 C 439.625 427.074219 441.3125 426.621094 442.507812 425.71875 C 443.703125 424.8125 444.664062 423.324219 445.386719 421.261719 L 446.039062 421.261719 C 445.929688 423.722656 445.875 426.1875 445.875 428.652344 C 445.875 429.957031 445.886719 431.160156 445.902344 432.265625 C 445.921875 433.371094 445.96875 434.558594 446.039062 435.824219 L 445.386719 435.824219 C 445.023438 434.484375 444.644531 433.371094 444.246094 432.484375 C 443.847656 431.59375 443.367188 430.878906 442.804688 430.335938 C 442.246094 429.792969 441.566406 429.394531 440.769531 429.140625 C 439.972656 428.886719 438.992188 428.707031 437.832031 428.597656 C 437.507812 428.5625 437.164062 428.535156 436.800781 428.515625 C 436.4375 428.496094 436.058594 428.488281 435.660156 428.488281 L 433.105469 428.488281 C 433.105469 428.488281 433.105469 439.738281 433.105469 439.738281 Z M 433.105469 439.738281 "/>
<path style=" stroke:none;fill-rule:nonzero;fill:rgb(100%,100%,100%);fill-opacity:1;" d="M 512.863281 417.347656 C 512.863281 416.332031 512.765625 415.542969 512.566406 414.984375 C 512.367188 414.421875 512.066406 413.976562 511.667969 413.652344 C 511.269531 413.324219 510.78125 413.089844 510.199219 412.945312 C 509.621094 412.800781 508.949219 412.65625 508.191406 412.511719 L 508.191406 411.859375 C 509.710938 411.929688 511.207031 411.984375 512.671875 412.019531 C 514.140625 412.058594 515.636719 412.074219 517.15625 412.074219 C 518.246094 412.074219 519.320312 412.058594 520.390625 412.019531 C 521.460938 411.984375 522.539062 411.929688 523.625 411.859375 L 523.625 412.511719 C 522.464844 412.621094 521.503906 412.800781 520.746094 413.054688 C 519.984375 413.308594 519.386719 413.667969 518.949219 414.140625 C 518.515625 414.613281 518.207031 415.21875 518.027344 415.960938 C 517.847656 416.703125 517.753906 417.621094 517.753906 418.707031 L 517.753906 436.421875 C 517.753906 438.125 518.035156 439.566406 518.597656 440.742188 C 519.160156 441.921875 519.929688 442.882812 520.90625 443.625 C 521.886719 444.367188 523.019531 444.910156 524.304688 445.253906 C 525.589844 445.597656 526.957031 445.769531 528.40625 445.769531 C 530.726562 445.769531 532.628906 445.425781 534.113281 444.738281 C 535.597656 444.050781 536.777344 443.207031 537.644531 442.210938 C 538.515625 441.214844 539.113281 440.144531 539.441406 439.003906 C 539.765625 437.863281 539.929688 436.859375 539.929688 435.988281 L 539.929688 420.769531 C 539.929688 419.320312 539.867188 418.097656 539.738281 417.101562 C 539.613281 416.105469 539.359375 415.292969 538.976562 414.65625 C 538.597656 414.023438 538.0625 413.542969 537.375 413.21875 C 536.6875 412.890625 535.796875 412.65625 534.710938 412.511719 L 534.710938 411.859375 C 535.835938 411.929688 536.949219 411.984375 538.054688 412.019531 C 539.160156 412.058594 540.273438 412.074219 541.394531 412.074219 C 542.339844 412.074219 543.261719 412.058594 544.167969 412.019531 C 545.074219 411.984375 545.996094 411.929688 546.941406 411.859375 L 546.941406 412.511719 C 546.179688 412.621094 545.480469 412.765625 544.847656 412.945312 C 544.214844 413.125 543.679688 413.453125 543.242188 413.921875 C 542.808594 414.394531 542.472656 415.074219 542.238281 415.960938 C 542.003906 416.847656 541.886719 418.054688 541.886719 419.574219 L 541.886719 435.824219 C 541.886719 438 541.496094 439.875 540.71875 441.449219 C 539.9375 443.027344 538.878906 444.339844 537.539062 445.390625 C 536.195312 446.441406 534.628906 447.21875 532.835938 447.726562 C 531.042969 448.234375 529.132812 448.488281 527.101562 448.488281 C 525.253906 448.488281 523.480469 448.242188 521.777344 447.753906 C 520.074219 447.265625 518.5625 446.523438 517.238281 445.527344 C 515.917969 444.53125 514.855469 443.289062 514.058594 441.804688 C 513.261719 440.316406 512.863281 438.597656 512.863281 436.640625 C 512.863281 436.640625 512.863281 417.347656 512.863281 417.347656 Z M 512.863281 417.347656 "/>
<path style=" stroke:none;fill-rule:nonzero;fill:rgb(100%,100%,100%);fill-opacity:1;" d="M 619.960938 412.511719 C 618.21875 412.765625 616.863281 413.054688 615.882812 413.378906 C 614.90625 413.707031 614.191406 414.113281 613.738281 414.601562 C 613.285156 415.09375 613.003906 415.707031 612.894531 416.449219 C 612.785156 417.195312 612.730469 418.109375 612.730469 419.195312 L 612.730469 445.28125 C 613.710938 445.464844 614.660156 445.625 615.585938 445.769531 C 616.507812 445.914062 617.441406 445.988281 618.382812 445.988281 C 620.519531 445.988281 622.386719 445.769531 623.980469 445.335938 C 625.574219 444.902344 627.007812 444.25 628.273438 443.378906 C 629.542969 442.511719 630.710938 441.414062 631.78125 440.09375 C 632.847656 438.769531 633.925781 437.21875 635.015625 435.445312 L 635.828125 435.445312 L 631.644531 447.617188 C 630.339844 447.546875 629.027344 447.492188 627.703125 447.457031 C 626.382812 447.417969 625.066406 447.402344 623.765625 447.402344 L 607.785156 447.402344 C 606.878906 447.402344 605.972656 447.417969 605.070312 447.457031 C 604.164062 447.492188 603.257812 447.546875 602.351562 447.617188 L 602.351562 446.964844 C 603.546875 446.859375 604.496094 446.675781 605.203125 446.421875 C 605.910156 446.167969 606.464844 445.851562 606.863281 445.472656 C 607.261719 445.089844 607.523438 444.628906 607.648438 444.085938 C 607.777344 443.542969 607.839844 442.910156 607.839844 442.183594 L 607.839844 420.664062 C 607.839844 419.140625 607.792969 417.882812 607.703125 416.886719 C 607.613281 415.890625 607.386719 415.082031 607.023438 414.46875 C 606.664062 413.851562 606.121094 413.398438 605.394531 413.109375 C 604.667969 412.820312 603.65625 412.621094 602.351562 412.511719 L 602.351562 411.859375 C 603.765625 411.929688 605.167969 411.984375 606.5625 412.019531 C 607.957031 412.058594 609.363281 412.074219 610.773438 412.074219 C 612.296875 412.074219 613.828125 412.058594 615.367188 412.019531 C 616.90625 411.984375 618.4375 411.929688 619.960938 411.859375 C 619.960938 411.859375 619.960938 412.511719 619.960938 412.511719 Z M 619.960938 412.511719 "/>
<path style=" stroke:none;fill-rule:nonzero;fill:rgb(100%,100%,100%);fill-opacity:1;" d="M 224.757812 481.488281 C 224.757812 481.488281 220.894531 500.40625 207.367188 508.6875 C 193.839844 516.964844 170.644531 514.605469 170.644531 514.605469 C 170.644531 514.605469 209.6875 545.351562 241.375 586.71875 C 273.058594 628.085938 283.226562 666.160156 283.226562 666.160156 C 283.226562 666.160156 271.121094 635.761719 234.03125 592.683594 C 196.9375 549.605469 134.855469 493.855469 134.855469 493.855469 C 134.855469 493.855469 174.109375 509.277344 196.585938 506.183594 C 219.058594 503.09375 224.757812 481.488281 224.757812 481.488281 Z M 258.0625 492.519531 C 258.0625 492.519531 255.847656 511.699219 243.085938 521.113281 C 230.320312 530.53125 207.007812 530.175781 207.007812 530.175781 C 207.007812 530.175781 248.558594 557.445312 283.695312 595.925781 C 318.832031 634.40625 315.320312 682.839844 315.320312 682.839844 C 315.320312 682.839844 317.5625 642.21875 276.890625 602.5 C 236.222656 562.78125 169.566406 512.589844 169.566406 512.589844 C 169.566406 512.589844 210.003906 524.570312 232.125 519.550781 C 254.25 514.535156 258.0625 492.519531 258.0625 492.519531 Z M 297.0625 499.183594 C 297.0625 499.183594 297.054688 518.492188 285.449219 529.304688 C 273.847656 540.117188 250.648438 542.433594 250.648438 542.433594 C 250.648438 542.433594 295.042969 564.769531 334.347656 598.980469 C 373.652344 633.191406 391.210938 668.472656 391.210938 668.472656 C 391.210938 668.472656 373.285156 641.097656 328.34375 606.289062 C 283.398438 571.484375 211.441406 529.242188 211.441406 529.242188 C 211.441406 529.242188 252.980469 536.519531 274.386719 529.003906 C 295.792969 521.492188 297.0625 499.183594 297.0625 499.183594 Z M 335.148438 499.257812 C 335.148438 499.257812 338.59375 518.257812 329.109375 530.972656 C 319.625 543.683594 297.214844 550.109375 297.214844 550.109375 C 297.214844 550.109375 344.890625 564.152344 389.679688 590.78125 C 434.46875 617.414062 445.160156 664.78125 445.160156 664.78125 C 445.160156 664.78125 435.519531 625.257812 385.074219 599.046875 C 334.632812 572.835938 256.28125 544.144531 256.28125 544.144531 C 256.28125 544.144531 298.453125 543.878906 318.171875 532.65625 C 337.886719 521.433594 335.148438 499.257812 335.148438 499.257812 Z M 407.078125 482.128906 C 407.078125 482.128906 415.933594 499.289062 410.589844 514.21875 C 405.246094 529.152344 385.699219 541.859375 385.699219 541.859375 C 385.699219 541.859375 435.394531 541.324219 486.019531 553.671875 C 536.640625 566.019531 568.4375 589.300781 568.4375 589.300781 C 568.4375 589.300781 539.945312 573.214844 484.039062 562.921875 C 428.128906 552.632812 344.8125 548.144531 344.8125 548.144531 C 344.8125 548.144531 385.058594 535.535156 400.625 519.035156 C 416.191406 502.53125 407.078125 482.128906 407.078125 482.128906 Z M 373.464844 497.003906 C 373.464844 497.003906 378.367188 515.679688 369.898438 529.089844 C 361.425781 542.5 339.578125 550.640625 339.578125 550.640625 C 339.578125 550.640625 388.195312 560.949219 434.910156 584.035156 C 481.625 607.121094 495.953125 653.519531 495.953125 653.519531 C 495.953125 653.519531 483.28125 614.859375 430.960938 592.628906 C 378.644531 570.402344 298.304688 547.859375 298.304688 547.859375 C 298.304688 547.859375 340.332031 544.328125 359.121094 531.613281 C 377.910156 518.902344 373.464844 497.003906 373.464844 497.003906 Z M 423.117188 453.914062 C 423.117188 453.914062 438.113281 466.082031 439.203125 481.902344 C 440.292969 497.726562 427.484375 517.203125 427.484375 517.203125 C 427.484375 517.203125 472.792969 496.789062 524.121094 487.800781 C 575.449219 478.816406 563.996094 518.488281 563.996094 518.488281 C 563.996094 518.488281 581.359375 484.082031 526.015625 497.070312 C 470.675781 510.058594 392.542969 539.355469 392.542969 539.355469 C 392.542969 539.355469 424.359375 511.667969 432.003906 490.308594 C 439.644531 468.949219 423.117188 453.914062 423.117188 453.914062 Z M 423.117188 453.914062 "/>
<path style=" stroke:none;fill-rule:nonzero;fill:rgb(100%,100%,100%);fill-opacity:1;" d="M 434.734375 203.429688 C 434.734375 203.429688 438.378906 184.46875 451.8125 176.035156 C 465.242188 167.601562 488.460938 169.695312 488.460938 169.695312 C 488.460938 169.695312 449.070312 139.394531 416.914062 98.394531 C 384.753906 57.390625 374.15625 19.4375 374.15625 19.4375 C 374.15625 19.4375 386.605469 49.699219 424.1875 92.347656 C 461.769531 134.996094 524.484375 190.035156 524.484375 190.035156 C 524.484375 190.035156 485.058594 175.0625 462.621094 178.410156 C 440.183594 181.761719 434.734375 203.429688 434.734375 203.429688 Z M 401.300781 192.78125 C 401.300781 192.78125 403.296875 173.574219 415.953125 164.015625 C 428.609375 154.453125 451.921875 154.539062 451.921875 154.539062 C 451.921875 154.539062 410.0625 127.75 374.488281 89.671875 C 338.914062 51.597656 341.871094 3.125 341.871094 3.125 C 341.871094 3.125 340.09375 43.773438 381.214844 83.023438 C 422.335938 122.273438 489.566406 171.695312 489.566406 171.695312 C 489.566406 171.695312 448.992188 160.179688 426.925781 165.449219 C 404.859375 170.722656 401.300781 192.78125 401.300781 192.78125 Z M 362.226562 186.5625 C 362.226562 186.5625 362.015625 167.253906 373.496094 156.308594 C 384.972656 145.363281 408.144531 142.785156 408.144531 142.785156 C 408.144531 142.785156 363.496094 120.957031 323.804688 87.195312 C 284.109375 53.4375 266.148438 18.359375 266.148438 18.359375 C 266.148438 18.359375 284.386719 45.527344 329.726562 79.820312 C 375.0625 114.109375 447.503906 155.523438 447.503906 155.523438 C 447.503906 155.523438 405.878906 148.722656 384.5625 156.480469 C 363.242188 164.242188 362.226562 186.5625 362.226562 186.5625 Z M 324.144531 186.921875 C 324.144531 186.921875 320.484375 167.964844 329.820312 155.140625 C 339.15625 142.320312 361.492188 135.640625 361.492188 135.640625 C 361.492188 135.640625 313.660156 122.144531 268.570312 96.027344 C 223.480469 69.910156 212.246094 22.667969 212.246094 22.667969 C 212.246094 22.667969 222.339844 62.082031 273.078125 87.710938 C 323.816406 113.34375 402.492188 141.136719 402.492188 141.136719 C 402.492188 141.136719 360.328125 141.886719 340.738281 153.332031 C 321.152344 164.78125 324.144531 186.921875 324.144531 186.921875 Z M 252.414062 204.875 C 252.414062 204.875 243.363281 187.816406 248.535156 172.824219 C 253.710938 157.832031 273.109375 144.902344 273.109375 144.902344 C 273.109375 144.902344 223.425781 146.007812 172.664062 134.238281 C 121.902344 122.46875 89.839844 99.554688 89.839844 99.554688 C 89.839844 99.554688 118.515625 115.316406 174.535156 124.964844 C 230.558594 134.617188 313.921875 138.152344 313.921875 138.152344 C 313.921875 138.152344 273.824219 151.21875 258.449219 167.898438 C 243.070312 184.578125 252.414062 204.875 252.414062 204.875 Z M 285.859375 189.613281 C 285.859375 189.613281 280.742188 170.996094 289.058594 157.492188 C 297.375 143.988281 319.125 135.597656 319.125 135.597656 C 319.125 135.597656 270.394531 125.84375 223.417969 103.292969 C 176.441406 80.746094 161.585938 34.511719 161.585938 34.511719 C 161.585938 34.511719 174.699219 73.023438 227.269531 94.652344 C 279.839844 116.28125 360.429688 137.902344 360.429688 137.902344 C 360.429688 137.902344 318.445312 141.914062 299.804688 154.84375 C 281.160156 167.769531 285.859375 189.613281 285.859375 189.613281 Z M 236.699219 233.269531 C 236.699219 233.269531 221.566406 221.277344 220.296875 205.46875 C 219.023438 189.65625 231.609375 170.035156 231.609375 170.035156 C 231.609375 170.035156 186.539062 190.96875 135.316406 200.539062 C 84.09375 210.113281 95.09375 170.3125 95.09375 170.3125 C 95.09375 170.3125 78.125 204.917969 133.316406 191.292969 C 188.503906 177.671875 266.292969 147.484375 266.292969 147.484375 C 266.292969 147.484375 234.796875 175.53125 227.398438 196.980469 C 220 218.425781 236.699219 233.269531 236.699219 233.269531 Z M 236.699219 233.269531 "/>
</g>
</defs>
<g id="surface1">
<use xlink:href="#surface5" transform="matrix(1,0,0,1,67,67)"/>
</g>
</svg>
