<?xml version="1.0" encoding="UTF-8"?>
<svg xmlns="http://www.w3.org/2000/svg" xmlns:xlink="http://www.w3.org/1999/xlink" width="512pt" height="512pt" viewBox="0 0 512 512" version="1.1">
<defs>
<clipPath id="clip1">
  <rect x="0" y="0" width="379" height="383"/>
</clipPath>
<g id="surface5" clip-path="url(#clip1)">
<path style=" stroke:none;fill-rule:nonzero;fill:rgb(17.64679%,38.038635%,57.647705%);fill-opacity:1;" d="M 0.644531 382.890625 L 0.644531 0.625 L 378.261719 0.625 C 378.261719 0.625 0.644531 382.890625 0.644531 382.890625 Z M 0.644531 382.890625 "/>
<path style=" stroke:none;fill-rule:nonzero;fill:rgb(9.803772%,15.293884%,27.058411%);fill-opacity:1;" d="M 0.644531 382.890625 L 0.644531 0.625 L 189.453125 190.289062 C 189.453125 190.289062 0.644531 382.890625 0.644531 382.890625 Z M 0.644531 382.890625 "/>
<path style=" stroke:none;fill-rule:nonzero;fill:rgb(13.725281%,21.960449%,40.391541%);fill-opacity:1;" d="M 378.261719 0.625 L 378.261719 382.890625 L 0.644531 382.890625 C 0.644531 382.890625 378.261719 0.625 378.261719 0.625 Z M 378.261719 0.625 "/>
<path style=" stroke:none;fill-rule:nonzero;fill:rgb(12.940979%,28.627014%,38.038635%);fill-opacity:1;" d="M 378.261719 382.890625 L 0.644531 382.890625 L 188.003906 191.757812 C 188.003906 191.757812 378.261719 382.890625 378.261719 382.890625 Z M 378.261719 382.890625 "/>
<path style=" stroke:none;fill-rule:nonzero;fill:rgb(35.68573%,57.647705%,64.706421%);fill-opacity:1;" d="M 22.410156 249.113281 L 37.476562 249.113281 C 43.539062 249.113281 48.195312 249.832031 51.449219 251.269531 C 54.707031 252.707031 57.277344 254.914062 59.164062 257.894531 C 61.050781 260.871094 61.996094 264.179688 61.996094 267.816406 C 61.996094 271.210938 61.164062 274.300781 59.503906 277.089844 C 57.839844 279.878906 55.398438 282.136719 52.179688 283.867188 C 56.160156 285.21875 59.226562 286.804688 61.371094 288.621094 C 63.519531 290.441406 65.191406 292.640625 66.386719 295.21875 C 67.582031 297.800781 68.179688 300.597656 68.179688 303.609375 C 68.179688 309.738281 65.9375 314.925781 61.449219 319.167969 C 56.964844 323.410156 50.949219 325.53125 43.398438 325.53125 L 22.410156 325.53125 C 22.410156 325.53125 22.410156 249.113281 22.410156 249.113281 Z M 29.890625 256.59375 L 29.890625 281.0625 L 34.253906 281.0625 C 39.554688 281.0625 43.449219 280.570312 45.945312 279.582031 C 48.4375 278.59375 50.410156 277.039062 51.867188 274.90625 C 53.320312 272.777344 54.046875 270.414062 54.046875 267.816406 C 54.046875 264.320312 52.828125 261.574219 50.386719 259.582031 C 47.945312 257.589844 44.058594 256.59375 38.722656 256.59375 C 38.722656 256.59375 29.890625 256.59375 29.890625 256.59375 Z M 29.890625 288.75 L 29.890625 318.050781 L 39.347656 318.050781 C 44.921875 318.050781 49.007812 317.503906 51.605469 316.414062 C 54.203125 315.324219 56.289062 313.617188 57.867188 311.296875 C 59.441406 308.976562 60.230469 306.464844 60.230469 303.765625 C 60.230469 300.371094 59.121094 297.410156 56.90625 294.882812 C 54.6875 292.355469 51.640625 290.621094 47.761719 289.6875 C 45.164062 289.0625 40.644531 288.75 34.203125 288.75 C 34.203125 288.75 29.890625 288.75 29.890625 288.75 Z M 29.890625 288.75 "/>
<path style=" stroke:none;fill-rule:nonzero;fill:rgb(35.68573%,57.647705%,64.706421%);fill-opacity:1;" d="M 129.6875 306.777344 L 135.816406 310 C 133.808594 313.945312 131.488281 317.132812 128.855469 319.558594 C 126.222656 321.980469 123.261719 323.824219 119.972656 325.089844 C 116.679688 326.355469 112.957031 326.984375 108.800781 326.984375 C 99.589844 326.984375 92.386719 323.964844 87.191406 317.921875 C 81.996094 311.878906 79.398438 305.046875 79.398438 297.425781 C 79.398438 290.257812 81.597656 283.867188 85.996094 278.257812 C 91.574219 271.125 99.035156 267.554688 108.386719 267.554688 C 118.015625 267.554688 125.703125 271.210938 131.453125 278.519531 C 135.539062 283.679688 137.617188 290.121094 137.6875 297.84375 L 86.878906 297.84375 C 87.019531 304.421875 89.113281 309.816406 93.164062 314.023438 C 97.21875 318.234375 102.222656 320.335938 108.179688 320.335938 C 111.054688 320.335938 113.851562 319.835938 116.570312 318.832031 C 119.289062 317.824219 121.597656 316.492188 123.503906 314.832031 C 125.410156 313.167969 127.46875 310.484375 129.6875 306.777344 Z M 129.6875 291.558594 C 128.714844 287.679688 127.304688 284.578125 125.453125 282.257812 C 123.597656 279.9375 121.148438 278.066406 118.101562 276.648438 C 115.054688 275.226562 111.851562 274.519531 108.492188 274.519531 C 102.949219 274.519531 98.1875 276.300781 94.203125 279.867188 C 91.296875 282.464844 89.097656 286.363281 87.605469 291.558594 C 87.605469 291.558594 129.6875 291.558594 129.6875 291.558594 Z M 129.6875 291.558594 "/>
<path style=" stroke:none;fill-rule:nonzero;fill:rgb(100%,100%,100%);fill-opacity:1;" d="M 144.542969 311.296875 L 151.035156 307.402344 C 155.609375 315.816406 160.890625 320.023438 166.882812 320.023438 C 169.445312 320.023438 171.851562 319.425781 174.101562 318.234375 C 176.351562 317.039062 178.066406 315.4375 179.246094 313.425781 C 180.421875 311.417969 181.011719 309.289062 181.011719 307.039062 C 181.011719 304.476562 180.144531 301.964844 178.414062 299.503906 C 176.023438 296.109375 171.660156 292.023438 165.324219 287.246094 C 158.949219 282.429688 154.984375 278.949219 153.425781 276.804688 C 150.726562 273.203125 149.375 269.304688 149.375 265.113281 C 149.375 261.789062 150.171875 258.761719 151.765625 256.023438 C 153.355469 253.289062 155.601562 251.132812 158.492188 249.554688 C 161.382812 247.980469 164.527344 247.191406 167.921875 247.191406 C 171.523438 247.191406 174.890625 248.085938 178.023438 249.867188 C 181.160156 251.652344 184.476562 254.933594 187.972656 259.710938 L 181.738281 264.441406 C 178.863281 260.628906 176.414062 258.121094 174.386719 256.90625 C 172.363281 255.695312 170.15625 255.089844 167.765625 255.089844 C 164.683594 255.089844 162.164062 256.023438 160.207031 257.894531 C 158.25 259.765625 157.269531 262.066406 157.269531 264.804688 C 157.269531 266.464844 157.617188 268.074219 158.308594 269.632812 C 159.003906 271.191406 160.265625 272.890625 162.101562 274.726562 C 163.105469 275.695312 166.398438 278.242188 171.972656 282.363281 C 178.585938 287.246094 183.125 291.589844 185.582031 295.402344 C 188.042969 299.210938 189.273438 303.039062 189.273438 306.882812 C 189.273438 312.421875 187.167969 317.238281 182.960938 321.324219 C 178.75 325.410156 173.636719 327.453125 167.609375 327.453125 C 162.96875 327.453125 158.761719 326.214844 154.984375 323.738281 C 151.210938 321.261719 147.730469 317.117188 144.542969 311.296875 Z M 144.542969 311.296875 "/>
<path style=" stroke:none;fill-rule:nonzero;fill:rgb(100%,100%,100%);fill-opacity:1;" d="M 203.296875 269.011719 L 210.621094 269.011719 L 210.621094 295.402344 C 210.621094 301.84375 210.96875 306.277344 211.660156 308.699219 C 212.699219 312.164062 214.683594 314.898438 217.609375 316.90625 C 220.535156 318.917969 224.027344 319.921875 228.078125 319.921875 C 232.128906 319.921875 235.566406 318.941406 238.390625 316.984375 C 241.210938 315.03125 243.160156 312.457031 244.234375 309.273438 C 244.960938 307.089844 245.324219 302.464844 245.324219 295.402344 L 245.324219 269.011719 L 252.753906 269.011719 L 252.753906 296.75 C 252.753906 304.542969 251.84375 310.414062 250.027344 314.363281 C 248.207031 318.3125 245.472656 321.402344 241.816406 323.636719 C 238.164062 325.871094 233.585938 326.984375 228.078125 326.984375 C 222.570312 326.984375 217.972656 325.871094 214.285156 323.636719 C 210.597656 321.402344 207.84375 318.285156 206.023438 314.285156 C 204.207031 310.285156 203.296875 304.265625 203.296875 296.230469 C 203.296875 296.230469 203.296875 269.011719 203.296875 269.011719 Z M 203.296875 269.011719 "/>
<path style=" stroke:none;fill-rule:nonzero;fill:rgb(100%,100%,100%);fill-opacity:1;" d="M 266.15625 269.011719 L 273.585938 269.011719 L 273.585938 277.269531 C 275.800781 274.015625 278.140625 271.582031 280.597656 269.972656 C 283.058594 268.363281 285.621094 267.554688 288.285156 267.554688 C 290.296875 267.554688 292.441406 268.199219 294.726562 269.480469 L 290.9375 275.609375 C 289.410156 274.949219 288.128906 274.621094 287.089844 274.621094 C 284.667969 274.621094 282.328125 275.617188 280.078125 277.609375 C 277.828125 279.601562 276.113281 282.691406 274.933594 286.882812 C 274.035156 290.101562 273.585938 296.613281 273.585938 306.414062 L 273.585938 325.53125 L 266.15625 325.53125 C 266.15625 325.53125 266.15625 269.011719 266.15625 269.011719 Z M 266.15625 269.011719 "/>
<path style=" stroke:none;fill-rule:nonzero;fill:rgb(100%,100%,100%);fill-opacity:1;" d="M 348.496094 306.777344 L 354.625 310 C 352.617188 313.945312 350.296875 317.132812 347.664062 319.558594 C 345.03125 321.980469 342.070312 323.824219 338.78125 325.089844 C 335.492188 326.355469 331.769531 326.984375 327.613281 326.984375 C 318.398438 326.984375 311.195312 323.964844 306 317.921875 C 300.804688 311.878906 298.207031 305.046875 298.207031 297.425781 C 298.207031 290.257812 300.40625 283.867188 304.804688 278.257812 C 310.382812 271.125 317.84375 267.554688 327.195312 267.554688 C 336.824219 267.554688 344.511719 271.210938 350.261719 278.519531 C 354.347656 283.679688 356.425781 290.121094 356.496094 297.84375 L 305.6875 297.84375 C 305.828125 304.421875 307.921875 309.816406 311.976562 314.023438 C 316.027344 318.234375 321.03125 320.335938 326.988281 320.335938 C 329.863281 320.335938 332.660156 319.835938 335.378906 318.832031 C 338.097656 317.824219 340.410156 316.492188 342.3125 314.832031 C 344.21875 313.167969 346.277344 310.484375 348.496094 306.777344 Z M 348.496094 291.558594 C 347.527344 287.679688 346.113281 284.578125 344.261719 282.257812 C 342.410156 279.9375 339.957031 278.066406 336.910156 276.648438 C 333.863281 275.226562 330.660156 274.519531 327.300781 274.519531 C 321.757812 274.519531 316.996094 276.300781 313.015625 279.867188 C 310.105469 282.464844 307.90625 286.363281 306.417969 291.558594 C 306.417969 291.558594 348.496094 291.558594 348.496094 291.558594 Z M 348.496094 291.558594 "/>
</g>
</defs>
<g id="surface1">
<use xlink:href="#surface5" transform="matrix(1,0,0,1,115,27)"/>
</g>
</svg>
