<?xml version="1.0" encoding="UTF-8" standalone="no"?>
<!DOCTYPE svg PUBLIC "-//W3C//DTD SVG 1.1//EN" "http://www.w3.org/Graphics/SVG/1.1/DTD/svg11.dtd">
<!-- Created with Vectornator (http://vectornator.io/) -->
<svg height="100%" stroke-miterlimit="10" style="fill-rule:nonzero;clip-rule:evenodd;stroke-linecap:round;stroke-linejoin:round;" version="1.1" viewBox="0 0 850.5 850.5" width="100%" xml:space="preserve" xmlns="http://www.w3.org/2000/svg" xmlns:vectornator="http://vectornator.io" xmlns:xlink="http://www.w3.org/1999/xlink">
<defs/>
<g id="Layer-1" vectornator:layerName="Layer 1">
<g opacity="0.304264" vectornator:blendMode="overlay" vectornator:layerName="Group 2">
<g opacity="1">
<path d="M546.055 448.835L547.506 448.835L547.506 452.462L546.055 452.462L546.055 448.835Z" fill="#ffffff" fill-rule="nonzero" opacity="1" stroke="none"/>
<path d="M112.635 431.74C113.632 431.961 114.851 432.183 116.292 432.405C117.733 432.626 119.284 432.848 120.947 433.07C122.609 433.291 124.327 433.485 126.1 433.651C127.873 433.818 129.536 433.901 131.087 433.901C137.737 433.901 143.694 433.347 148.958 432.238C154.222 431.13 159.043 429.357 163.421 426.919C167.798 424.481 171.927 421.377 175.806 417.609C179.684 413.841 183.619 409.297 187.609 403.978L189.437 405.474L174.309 438.888C172.425 438.666 170.486 438.5 168.491 438.389C166.496 438.278 164.557 438.223 162.673 438.223L100.167 438.223C96.9528 438.223 93.7388 438.278 90.5249 438.389C87.3109 438.5 84.0969 438.666 80.883 438.888L80.883 436.893C84.8727 436.561 87.9759 435.951 90.1924 435.064C92.4089 434.178 94.0713 432.793 95.1796 430.908C96.2878 429.024 96.9805 426.559 97.2575 423.511C97.5346 420.463 97.6731 416.612 97.6731 411.957L97.6731 356.433C97.6731 351.779 97.5346 347.927 97.2575 344.88C96.9805 341.832 96.2878 339.366 95.1796 337.482C94.0713 335.598 92.3535 334.213 90.0261 333.326C87.6988 332.439 84.5402 331.83 80.5505 331.497L80.5505 329.503C84.3186 329.613 87.8927 329.724 91.2729 329.835C94.6531 329.946 98.1442 330.029 101.746 330.084C105.348 330.14 109.171 330.167 113.217 330.167C117.262 330.167 121.833 330.167 126.931 330.167C134.689 330.167 142.447 330.112 150.205 330.001C157.963 329.89 165.831 329.724 173.811 329.503C173.7 330.722 173.617 331.941 173.561 333.16C173.506 334.379 173.478 335.543 173.478 336.651L173.478 343.3C173.478 345.739 173.589 348.204 173.811 350.698C174.032 353.192 174.254 355.935 174.476 358.927L172.315 359.592C170.874 354.272 168.962 349.922 166.579 346.542C164.197 343.162 161.426 340.53 158.267 338.646C155.109 336.762 151.645 335.487 147.877 334.822C144.109 334.157 140.12 333.825 135.908 333.825C128.15 333.825 120.393 334.157 112.635 334.822L112.635 376.382C114.851 376.382 116.985 376.327 119.035 376.216C121.085 376.105 123.219 376.05 125.435 376.05C133.082 376.05 139.15 374.526 143.638 371.478C148.127 368.43 150.87 362.861 151.867 354.771L153.862 354.771C153.862 358.761 153.807 362.75 153.696 366.74C153.585 370.73 153.53 374.664 153.53 378.543C153.53 382.533 153.585 386.523 153.696 390.512C153.807 394.502 153.862 398.492 153.862 402.482L151.867 402.482C150.87 397.827 149.651 394.031 148.21 391.094C146.769 388.157 144.968 385.913 142.807 384.361C140.646 382.81 137.958 381.757 134.744 381.203C131.531 380.649 127.707 380.372 123.274 380.372L112.635 380.372L112.635 431.74Z" fill="#ffffff" fill-rule="nonzero" opacity="1" stroke="none"/>
<path d="M289.098 361.088C287.657 357.542 285.801 354.023 283.529 350.532C281.257 347.041 278.625 343.938 275.633 341.222C272.64 338.507 269.316 336.318 265.658 334.656C262.001 332.994 258.011 332.162 253.689 332.162C247.372 332.162 242.191 333.326 238.146 335.653C234.101 337.981 232.078 342.137 232.078 348.121C232.078 351.668 232.992 354.743 234.821 357.348C236.65 359.952 239.088 362.252 242.136 364.247C245.183 366.241 248.647 368.07 252.525 369.732C256.404 371.395 260.366 373.085 264.412 374.803C268.457 376.521 272.419 378.377 276.298 380.372C280.177 382.367 283.64 384.749 286.688 387.52C289.735 390.291 292.174 393.505 294.002 397.162C295.831 400.819 296.745 405.197 296.745 410.295C296.745 415.725 295.748 420.408 293.753 424.342C291.758 428.276 289.07 431.518 285.69 434.067C282.31 436.616 278.376 438.5 273.887 439.719C269.399 440.938 264.606 441.548 259.508 441.548C256.737 441.548 253.855 441.298 250.863 440.8C247.871 440.301 244.989 439.747 242.219 439.137C239.448 438.528 236.927 437.974 234.655 437.475C232.383 436.976 230.582 436.727 229.252 436.727C228.033 436.727 226.869 436.921 225.761 437.309C224.653 437.697 223.489 438.112 222.27 438.555C221.272 432.238 220.109 426.06 218.779 420.02C217.449 413.98 216.064 407.801 214.623 401.484L216.784 400.32C218.779 404.199 221.189 408.245 224.015 412.456C226.842 416.667 230.028 420.519 233.574 424.01C237.121 427.501 241.027 430.41 245.294 432.737C249.561 435.064 254.188 436.228 259.175 436.228C262.389 436.228 265.492 435.868 268.484 435.148C271.477 434.427 274.109 433.291 276.381 431.74C278.653 430.188 280.454 428.166 281.784 425.672C283.113 423.178 283.778 420.103 283.778 416.446C283.778 411.237 282.171 406.887 278.958 403.396C275.744 399.905 271.754 396.857 266.988 394.253C262.223 391.648 257.042 389.238 251.445 387.021C245.848 384.805 240.667 382.311 235.902 379.541C231.136 376.77 227.146 373.501 223.932 369.732C220.718 365.964 219.111 361.199 219.111 355.436C219.111 351.114 219.943 347.179 221.605 343.633C223.267 340.086 225.512 337.066 228.338 334.573C231.164 332.079 234.433 330.167 238.146 328.838C241.858 327.508 245.82 326.843 250.032 326.843C254.132 326.843 257.817 327.12 261.087 327.674C264.356 328.228 267.542 328.838 270.646 329.503C273.86 330.167 277.018 330.805 280.121 331.414C283.224 332.024 286.549 332.329 290.096 332.329C290.096 337.316 290.179 342.164 290.345 346.875C290.511 351.585 290.871 356.322 291.425 361.088L289.098 361.088Z" fill="#ffffff" fill-rule="nonzero" opacity="1" stroke="none"/>
<path d="M327.915 329.503C331.794 329.724 335.479 329.89 338.97 330.001C342.461 330.112 346.534 330.167 351.189 330.167C353.627 330.167 356.01 330.112 358.337 330.001C360.665 329.89 363.047 329.724 365.486 329.503C366.926 331.497 369.309 334.517 372.634 338.563C375.959 342.608 379.754 347.235 384.021 352.444C388.288 357.652 392.86 363.194 397.736 369.067C402.612 374.941 407.322 380.677 411.866 386.273C416.41 391.87 420.594 397.079 424.417 401.9C428.241 406.721 431.261 410.683 433.477 413.786L433.81 413.786C433.81 410.461 433.838 407.164 433.893 403.895C433.948 400.625 433.976 397.328 433.976 394.003L433.976 374.72C433.976 367.627 433.727 361.448 433.228 356.184C432.729 350.92 431.732 346.514 430.236 342.968C428.74 339.421 426.634 336.706 423.919 334.822C421.203 332.938 417.629 331.83 413.196 331.497L413.196 329.503C417.075 329.724 420.982 329.89 424.916 330.001C428.85 330.112 432.757 330.167 436.636 330.167C440.182 330.167 443.784 330.112 447.441 330.001C451.099 329.89 454.701 329.724 458.247 329.503L458.247 331.497C451.265 332.384 446.472 334.407 443.867 337.565C441.263 340.724 439.961 345.572 439.961 352.111L439.961 440.218L433.81 440.218C427.714 430.687 421.259 421.433 414.443 412.456C407.627 403.479 400.867 394.945 394.162 386.855C387.457 378.765 380.973 371.256 374.712 364.33C368.45 357.403 362.826 351.224 357.838 345.794C357.728 348.675 357.645 351.502 357.589 354.272C357.534 357.043 357.506 359.869 357.506 362.75L357.506 391.842C357.506 401.706 357.7 409.491 358.088 415.199C358.476 420.906 359.418 425.284 360.914 428.332C362.41 431.379 364.627 433.43 367.563 434.483C370.5 435.535 374.573 436.339 379.782 436.893L379.782 438.888C374.13 438.666 368.644 438.5 363.324 438.389C358.005 438.278 352.519 438.223 346.867 438.223C343.653 438.223 340.494 438.278 337.391 438.389C334.288 438.5 331.129 438.666 327.915 438.888L327.915 436.893C331.684 436.339 334.981 435.813 337.807 435.314C340.633 434.815 342.96 433.984 344.789 432.82C346.617 431.657 348.003 429.994 348.945 427.833C349.887 425.672 350.413 422.652 350.524 418.773L352.519 342.469C348.972 339.588 345.093 337.316 340.882 335.653C336.671 333.991 332.348 332.606 327.915 331.497L327.915 329.503Z" fill="#ffffff" fill-rule="nonzero" opacity="1" stroke="none"/>
<path d="M516.182 390.18L505.21 420.269C504.878 421.156 504.573 421.932 504.296 422.597C504.019 423.261 503.88 423.982 503.88 424.758C503.88 426.752 504.462 428.47 505.626 429.911C506.789 431.352 508.202 432.543 509.865 433.485C511.527 434.427 513.245 435.175 515.018 435.729C516.791 436.284 518.288 436.671 519.507 436.893L519.507 438.888C516.182 438.666 512.857 438.5 509.532 438.389C506.207 438.278 502.827 438.223 499.392 438.223C496.067 438.223 492.825 438.278 489.667 438.389C486.508 438.5 483.156 438.666 479.609 438.888L479.609 436.893C483.045 436.117 485.899 434.926 488.171 433.319C490.442 431.712 492.354 429.8 493.906 427.584C495.457 425.367 496.815 422.929 497.979 420.269C499.142 417.609 500.278 414.839 501.387 411.957L530.146 341.306C530.478 340.53 530.783 339.809 531.06 339.144C531.337 338.479 531.476 337.87 531.476 337.316C531.476 336.762 531.282 335.93 530.894 334.822C530.506 333.714 530.035 332.716 529.481 331.83C532.362 331.276 534.856 330.555 536.962 329.669C539.067 328.782 541.395 327.84 543.944 326.843L578.522 421.932C580.073 426.254 582.234 429.662 585.005 432.155C587.776 434.649 591.876 436.228 597.307 436.893L597.307 438.888C592.874 438.666 588.524 438.5 584.257 438.389C579.99 438.278 575.529 438.223 570.875 438.223C567.882 438.223 565.278 438.223 563.061 438.223C560.845 438.223 558.85 438.251 557.077 438.306C555.303 438.362 553.613 438.445 552.006 438.555C550.399 438.666 548.654 438.777 546.77 438.888L546.77 436.893C551.425 436.339 555.331 435.148 558.49 433.319C561.648 431.49 563.228 429.024 563.228 425.921C563.228 425.035 563.034 424.148 562.646 423.261C562.258 422.375 561.953 421.544 561.731 420.768L550.926 390.18L516.182 390.18ZM534.136 342.968L517.844 385.193L549.097 385.193L534.136 342.968Z" fill="#ffffff" fill-rule="nonzero" opacity="1" stroke="none"/>
<path d="M622.659 436.893C626.316 436.561 629.225 435.951 631.386 435.064C633.547 434.178 635.21 433.153 636.373 431.989C637.537 430.825 638.285 429.579 638.618 428.249C638.95 426.919 639.116 425.589 639.116 424.259L639.116 347.456C639.116 345.018 638.978 342.885 638.701 341.056C638.424 339.228 637.731 337.648 636.623 336.318C635.514 334.988 633.852 333.936 631.635 333.16C629.419 332.384 626.427 331.83 622.659 331.497L622.659 329.503C625.54 329.724 628.422 329.89 631.303 330.001C634.184 330.112 637.066 330.167 639.947 330.167C647.705 330.167 654.909 329.78 661.559 329.004C668.208 328.228 675.024 327.84 682.006 327.84C690.983 327.84 699.406 329.225 707.274 331.996C715.143 334.767 722.042 338.729 727.971 343.882C733.9 349.036 738.583 355.27 742.018 362.584C745.454 369.899 747.172 378.1 747.172 387.188C747.172 396.386 745.509 404.227 742.185 410.71C738.86 417.194 734.427 422.513 728.885 426.669C723.344 430.825 716.999 433.845 709.851 435.729C702.703 437.613 695.25 438.555 687.492 438.555C681.507 438.555 676.382 438.528 672.115 438.472C667.848 438.417 664.108 438.389 660.894 438.389C657.68 438.389 654.798 438.362 652.249 438.306C649.7 438.251 647.262 438.223 644.935 438.223C641.167 438.223 637.454 438.278 633.797 438.389C630.139 438.5 626.427 438.666 622.659 438.888L622.659 436.893ZM654.078 425.589C657.624 428.914 661.697 431.241 666.296 432.571C670.896 433.901 675.523 434.566 680.177 434.566C697.245 434.566 709.685 430.188 717.498 421.433C725.311 412.678 729.218 399.988 729.218 383.364C729.218 376.16 727.916 369.428 725.311 363.166C722.707 356.904 719.105 351.446 714.506 346.791C709.906 342.137 704.421 338.479 698.048 335.82C691.676 333.16 684.721 331.83 677.185 331.83C669.427 331.83 662.057 333.381 655.075 336.485C654.632 342.248 654.355 347.983 654.244 353.69C654.133 359.398 654.078 365.244 654.078 371.229L654.078 425.589Z" fill="#ffffff" fill-rule="nonzero" opacity="1" stroke="none"/>
<path d="M109.137 548.295C110.681 548.166 111.881 547.93 112.739 547.587C113.596 547.244 114.25 546.708 114.7 545.979C115.15 545.251 115.429 544.297 115.536 543.118C115.643 541.939 115.697 540.449 115.697 538.648L115.697 508.809C113.425 508.809 111.528 508.894 110.006 509.066C108.484 509.237 107.165 509.677 106.051 510.384C104.936 511.092 103.961 512.174 103.125 513.632C102.288 515.089 101.463 517.083 100.649 519.613L99.8126 519.355L100.713 506.751C102.514 506.836 104.293 506.901 106.051 506.944C107.808 506.986 109.588 507.008 111.388 507.008L126.501 507.008C128.216 507.008 129.909 506.986 131.582 506.944C133.254 506.901 134.947 506.836 136.662 506.751L137.562 519.355L136.726 519.613C135.912 517.083 135.086 515.089 134.25 513.632C133.414 512.174 132.439 511.092 131.324 510.384C130.21 509.677 128.87 509.237 127.305 509.066C125.74 508.894 123.8 508.809 121.485 508.809L121.485 538.648C121.485 540.449 121.538 541.939 121.646 543.118C121.753 544.297 122.032 545.251 122.482 545.979C122.932 546.708 123.607 547.244 124.507 547.587C125.408 547.93 126.651 548.166 128.237 548.295L128.237 549.066C126.608 548.981 124.979 548.916 123.35 548.873C121.721 548.831 120.092 548.809 118.462 548.809C116.876 548.809 115.311 548.831 113.768 548.873C112.224 548.916 110.681 548.981 109.137 549.066L109.137 548.295Z" fill="#ffffff" fill-rule="nonzero" opacity="1" stroke="none"/>
<path d="M209.305 530.224L205.06 541.864C204.932 542.207 204.814 542.507 204.707 542.764C204.599 543.021 204.546 543.3 204.546 543.6C204.546 544.372 204.771 545.036 205.221 545.594C205.671 546.151 206.218 546.612 206.861 546.976C207.504 547.341 208.169 547.63 208.855 547.844C209.541 548.059 210.119 548.209 210.591 548.295L210.591 549.066C209.305 548.981 208.019 548.916 206.732 548.873C205.446 548.831 204.139 548.809 202.81 548.809C201.523 548.809 200.269 548.831 199.047 548.873C197.826 548.916 196.529 548.981 195.157 549.066L195.157 548.295C196.486 547.995 197.59 547.534 198.469 546.912C199.348 546.29 200.087 545.551 200.687 544.693C201.288 543.836 201.813 542.893 202.263 541.864C202.713 540.835 203.153 539.763 203.581 538.648L214.707 511.317C214.835 511.016 214.953 510.738 215.061 510.481C215.168 510.223 215.221 509.988 215.221 509.773C215.221 509.559 215.146 509.237 214.996 508.809C214.846 508.38 214.664 507.994 214.45 507.651C215.564 507.437 216.529 507.158 217.344 506.815C218.158 506.472 219.058 506.108 220.045 505.722L233.421 542.507C234.021 544.179 234.857 545.497 235.929 546.462C237.001 547.426 238.587 548.037 240.688 548.295L240.688 549.066C238.973 548.981 237.29 548.916 235.64 548.873C233.989 548.831 232.263 548.809 230.463 548.809C229.305 548.809 228.298 548.809 227.44 548.809C226.583 548.809 225.811 548.82 225.125 548.841C224.439 548.863 223.785 548.895 223.164 548.938C222.542 548.981 221.867 549.023 221.138 549.066L221.138 548.295C222.938 548.08 224.45 547.619 225.672 546.912C226.893 546.205 227.504 545.251 227.504 544.05C227.504 543.707 227.429 543.364 227.279 543.021C227.129 542.678 227.011 542.357 226.926 542.057L222.746 530.224L209.305 530.224ZM216.25 511.96L209.948 528.294L222.038 528.294L216.25 511.96Z" fill="#ffffff" fill-rule="nonzero" opacity="1" stroke="none"/>
<path d="M315.774 538.648C315.774 540.449 315.828 541.939 315.935 543.118C316.042 544.297 316.321 545.251 316.771 545.979C317.221 546.708 317.897 547.244 318.797 547.587C319.697 547.93 320.941 548.166 322.527 548.295L322.527 549.066C320.898 548.981 319.269 548.916 317.639 548.873C316.01 548.831 314.381 548.809 312.752 548.809C311.166 548.809 309.601 548.831 308.057 548.873C306.514 548.916 304.97 548.981 303.427 549.066L303.427 548.295C304.97 548.166 306.171 547.93 307.028 547.587C307.886 547.244 308.54 546.708 308.99 545.979C309.44 545.251 309.719 544.297 309.826 543.118C309.933 541.939 309.987 540.449 309.987 538.648L309.987 517.169C309.987 515.368 309.933 513.878 309.826 512.699C309.719 511.52 309.44 510.566 308.99 509.837C308.54 509.109 307.864 508.573 306.964 508.23C306.064 507.887 304.842 507.651 303.298 507.522L303.298 506.751C305.099 506.836 306.846 506.901 308.54 506.944C310.233 506.986 311.98 507.008 313.781 507.008C315.196 507.008 316.611 506.986 318.025 506.944C319.44 506.901 320.834 506.836 322.205 506.751L322.205 507.522C320.705 507.651 319.526 507.887 318.668 508.23C317.811 508.573 317.168 509.109 316.739 509.837C316.31 510.566 316.042 511.52 315.935 512.699C315.828 513.878 315.774 515.368 315.774 517.169L315.774 528.037L325.55 520.063C326.45 519.334 327.307 518.573 328.122 517.78C328.937 516.987 329.655 516.183 330.276 515.368C330.898 514.554 331.391 513.782 331.755 513.053C332.12 512.324 332.302 511.66 332.302 511.059C332.302 510.416 332.163 509.87 331.884 509.419C331.605 508.969 331.241 508.605 330.791 508.326C330.341 508.048 329.837 507.844 329.28 507.715C328.722 507.587 328.165 507.522 327.607 507.522L327.607 506.751C329.237 506.836 330.834 506.901 332.399 506.944C333.963 506.986 335.56 507.008 337.19 507.008C338.905 507.008 340.609 506.986 342.302 506.944C343.996 506.901 345.7 506.836 347.415 506.751L347.415 507.522C346.3 507.651 345.26 507.865 344.296 508.165C343.331 508.466 342.345 508.905 341.338 509.484C340.33 510.063 339.258 510.791 338.122 511.67C336.986 512.549 335.668 513.632 334.167 514.918L326.193 521.735L339.183 540.835C340.512 542.721 342.024 544.393 343.717 545.851C345.411 547.309 347.393 548.123 349.666 548.295L349.666 549.066C347.822 548.981 345.979 548.916 344.135 548.873C342.291 548.831 340.448 548.809 338.604 548.809C336.932 548.809 335.271 548.831 333.62 548.873C331.97 548.916 330.308 548.981 328.636 549.066L328.636 548.295C330.18 548.209 331.52 547.887 332.656 547.33C333.792 546.773 334.36 545.787 334.36 544.372C334.36 543.772 334.124 543.128 333.653 542.442C333.181 541.756 332.516 540.792 331.659 539.549L321.948 525.272L315.774 530.095L315.774 538.648Z" fill="#ffffff" fill-rule="nonzero" opacity="1" stroke="none"/>
<path d="M423.337 530.224L419.093 541.864C418.964 542.207 418.847 542.507 418.739 542.764C418.632 543.021 418.579 543.3 418.579 543.6C418.579 544.372 418.804 545.036 419.254 545.594C419.704 546.151 420.251 546.612 420.894 546.976C421.537 547.341 422.201 547.63 422.887 547.844C423.573 548.059 424.152 548.209 424.624 548.295L424.624 549.066C423.337 548.981 422.051 548.916 420.765 548.873C419.479 548.831 418.171 548.809 416.842 548.809C415.556 548.809 414.302 548.831 413.08 548.873C411.858 548.916 410.561 548.981 409.189 549.066L409.189 548.295C410.518 547.995 411.622 547.534 412.501 546.912C413.38 546.29 414.12 545.551 414.72 544.693C415.32 543.836 415.845 542.893 416.296 541.864C416.746 540.835 417.185 539.763 417.614 538.648L428.739 511.317C428.868 511.016 428.986 510.738 429.093 510.481C429.2 510.223 429.254 509.988 429.254 509.773C429.254 509.559 429.179 509.237 429.029 508.809C428.879 508.38 428.697 507.994 428.482 507.651C429.597 507.437 430.562 507.158 431.376 506.815C432.191 506.472 433.091 506.108 434.077 505.722L447.454 542.507C448.054 544.179 448.89 545.497 449.962 546.462C451.033 547.426 452.62 548.037 454.721 548.295L454.721 549.066C453.006 548.981 451.323 548.916 449.672 548.873C448.022 548.831 446.296 548.809 444.495 548.809C443.338 548.809 442.33 548.809 441.473 548.809C440.615 548.809 439.844 548.82 439.158 548.841C438.472 548.863 437.818 548.895 437.196 548.938C436.575 548.981 435.899 549.023 435.17 549.066L435.17 548.295C436.971 548.08 438.482 547.619 439.704 546.912C440.926 546.205 441.537 545.251 441.537 544.05C441.537 543.707 441.462 543.364 441.312 543.021C441.162 542.678 441.044 542.357 440.958 542.057L436.778 530.224L423.337 530.224ZM430.283 511.96L423.981 528.294L436.071 528.294L430.283 511.96Z" fill="#ffffff" fill-rule="nonzero" opacity="1" stroke="none"/>
<path d="M530.064 539.741C530.064 541.456 530.15 542.796 530.322 543.761C530.493 544.725 530.847 545.486 531.383 546.044C531.919 546.601 532.701 547.03 533.73 547.33C534.759 547.63 536.152 547.952 537.91 548.295L537.91 549.066C536.067 548.981 534.245 548.916 532.444 548.873C530.643 548.831 528.821 548.809 526.978 548.809C525.391 548.809 523.816 548.831 522.251 548.873C520.686 548.916 519.11 548.981 517.524 549.066L517.524 548.295C519.067 548.166 520.279 547.93 521.158 547.587C522.036 547.244 522.712 546.708 523.183 545.979C523.655 545.251 523.955 544.297 524.084 543.118C524.212 541.939 524.277 540.449 524.277 538.648L524.277 517.169C524.277 515.368 524.212 513.878 524.084 512.699C523.955 511.52 523.655 510.566 523.183 509.837C522.712 509.109 522.036 508.573 521.158 508.23C520.279 507.887 519.067 507.651 517.524 507.522L517.524 506.751C518.124 506.793 518.917 506.836 519.903 506.879C520.89 506.922 521.908 506.954 522.958 506.976C524.009 506.997 525.016 507.008 525.981 507.008C526.945 507.008 527.728 507.008 528.328 507.008L542.283 507.008C544.47 507.008 546.399 506.976 548.071 506.911C549.743 506.847 551.501 506.793 553.344 506.751C553.259 507.651 553.194 508.541 553.152 509.419C553.109 510.298 553.087 511.167 553.087 512.024C553.087 513.139 553.109 514.243 553.152 515.336C553.194 516.429 553.259 517.533 553.344 518.648L552.316 518.648C551.63 516.204 550.74 514.307 549.647 512.957C548.553 511.606 547.267 510.62 545.788 509.998C544.309 509.377 542.626 509.001 540.74 508.873C538.853 508.744 536.795 508.68 534.566 508.68C533.837 508.68 533.108 508.701 532.38 508.744C531.651 508.787 530.879 508.809 530.064 508.809L530.064 524.757L535.209 524.757C537.782 524.757 539.775 524.221 541.19 523.15C542.605 522.078 543.741 520.32 544.598 517.876L545.37 517.876C545.241 520.792 545.177 523.707 545.177 526.622C545.177 528.166 545.188 529.591 545.209 530.899C545.231 532.207 545.284 533.611 545.37 535.111L544.598 535.111C544.17 533.525 543.719 532.207 543.248 531.156C542.776 530.106 542.208 529.259 541.544 528.616C540.879 527.973 540.075 527.501 539.132 527.201C538.189 526.901 537.031 526.687 535.659 526.558C535.273 526.515 534.866 526.483 534.437 526.462C534.009 526.44 533.559 526.429 533.087 526.429L530.064 526.429L530.064 539.741Z" fill="#ffffff" fill-rule="nonzero" opacity="1" stroke="none"/>
<path d="M624.444 513.246C624.444 512.045 624.326 511.113 624.09 510.448C623.854 509.784 623.501 509.259 623.029 508.873C622.557 508.487 621.979 508.208 621.293 508.037C620.607 507.865 619.814 507.694 618.913 507.522L618.913 506.751C620.714 506.836 622.482 506.901 624.219 506.944C625.955 506.986 627.724 507.008 629.524 507.008C630.811 507.008 632.086 506.986 633.351 506.944C634.616 506.901 635.891 506.836 637.177 506.751L637.177 507.522C635.805 507.651 634.669 507.865 633.769 508.165C632.868 508.466 632.161 508.894 631.647 509.452C631.132 510.009 630.768 510.727 630.553 511.606C630.339 512.485 630.232 513.567 630.232 514.854L630.232 535.819C630.232 537.834 630.564 539.538 631.229 540.931C631.893 542.325 632.804 543.461 633.962 544.34C635.119 545.218 636.459 545.862 637.981 546.269C639.503 546.676 641.121 546.88 642.836 546.88C645.58 546.88 647.831 546.473 649.589 545.658C651.347 544.843 652.74 543.847 653.769 542.668C654.798 541.489 655.505 540.224 655.891 538.873C656.277 537.523 656.47 536.333 656.47 535.304L656.47 517.297C656.47 515.582 656.395 514.136 656.245 512.957C656.095 511.777 655.795 510.813 655.345 510.063C654.894 509.312 654.262 508.744 653.448 508.358C652.633 507.973 651.583 507.694 650.296 507.522L650.296 506.751C651.625 506.836 652.944 506.901 654.251 506.944C655.559 506.986 656.877 507.008 658.206 507.008C659.321 507.008 660.414 506.986 661.486 506.944C662.558 506.901 663.651 506.836 664.766 506.751L664.766 507.522C663.866 507.651 663.04 507.822 662.29 508.037C661.54 508.251 660.907 508.637 660.393 509.194C659.878 509.752 659.482 510.556 659.203 511.606C658.925 512.656 658.785 514.082 658.785 515.883L658.785 535.111C658.785 537.684 658.324 539.902 657.403 541.767C656.481 543.632 655.227 545.186 653.64 546.43C652.054 547.673 650.2 548.595 648.078 549.195C645.955 549.795 643.694 550.095 641.293 550.095C639.106 550.095 637.006 549.806 634.991 549.227C632.976 548.648 631.186 547.769 629.621 546.59C628.056 545.411 626.802 543.943 625.859 542.185C624.915 540.427 624.444 538.391 624.444 536.076L624.444 513.246Z" fill="#ffffff" fill-rule="nonzero" opacity="1" stroke="none"/>
<path d="M751.171 507.522C749.113 507.822 747.505 508.165 746.348 508.551C745.19 508.937 744.344 509.419 743.808 509.998C743.272 510.577 742.939 511.306 742.811 512.185C742.682 513.064 742.618 514.146 742.618 515.432L742.618 546.301C743.775 546.515 744.901 546.708 745.994 546.88C747.087 547.051 748.191 547.137 749.306 547.137C751.836 547.137 754.044 546.88 755.93 546.365C757.816 545.851 759.51 545.079 761.01 544.05C762.511 543.021 763.894 541.724 765.158 540.159C766.423 538.595 767.699 536.762 768.985 534.661L769.95 534.661L764.998 549.066C763.454 548.981 761.9 548.916 760.335 548.873C758.77 548.831 757.216 548.809 755.673 548.809L736.766 548.809C735.694 548.809 734.622 548.831 733.55 548.873C732.478 548.916 731.407 548.981 730.335 549.066L730.335 548.295C731.75 548.166 732.875 547.952 733.711 547.652C734.547 547.351 735.201 546.976 735.672 546.526C736.144 546.076 736.455 545.529 736.605 544.886C736.755 544.243 736.83 543.493 736.83 542.635L736.83 517.169C736.83 515.368 736.776 513.878 736.669 512.699C736.562 511.52 736.294 510.566 735.865 509.837C735.437 509.109 734.794 508.573 733.936 508.23C733.079 507.887 731.878 507.651 730.335 507.522L730.335 506.751C732.007 506.836 733.668 506.901 735.319 506.944C736.969 506.986 738.631 507.008 740.303 507.008C742.103 507.008 743.915 506.986 745.737 506.944C747.559 506.901 749.37 506.836 751.171 506.751L751.171 507.522Z" fill="#ffffff" fill-rule="nonzero" opacity="1" stroke="none"/>
<g opacity="1">
<path d="M283.524 589.144C283.524 589.144 278.954 611.531 262.946 621.327C246.938 631.124 219.492 628.33 219.492 628.33C219.492 628.33 265.692 664.715 303.187 713.665C340.682 762.616 352.71 807.67 352.71 807.67C352.71 807.67 338.389 771.695 294.497 720.722C250.606 669.748 177.144 603.777 177.144 603.777C177.144 603.777 223.593 622.026 250.188 618.367C276.783 614.709 283.524 589.144 283.524 589.144ZM322.937 602.196C322.937 602.196 320.314 624.894 305.211 636.035C290.108 647.175 262.524 646.759 262.524 646.759C262.524 646.759 311.689 679.024 353.266 724.558C394.842 770.093 390.688 827.405 390.688 827.405C390.688 827.405 393.34 779.336 345.217 732.338C297.093 685.34 218.216 625.949 218.216 625.949C218.216 625.949 266.065 640.124 292.246 634.186C318.426 628.248 322.937 602.196 322.937 602.196ZM369.085 610.083C369.085 610.083 369.075 632.932 355.344 645.726C341.613 658.52 314.163 661.261 314.163 661.261C314.163 661.261 366.694 687.693 413.205 728.175C459.715 768.657 480.493 810.405 480.493 810.405C480.493 810.405 459.28 778.012 406.098 736.824C352.916 695.636 267.766 645.653 267.766 645.653C267.766 645.653 316.922 654.265 342.252 645.372C367.582 636.479 369.085 610.083 369.085 610.083ZM414.153 610.173C414.153 610.173 418.228 632.655 407.006 647.698C395.785 662.742 369.266 670.346 369.266 670.346C369.266 670.346 425.678 686.96 478.677 718.473C531.676 749.986 544.328 806.038 544.328 806.038C544.328 806.038 532.921 759.268 473.231 728.253C413.542 697.238 320.827 663.286 320.827 663.286C320.827 663.286 370.731 662.969 394.062 649.691C417.394 636.413 414.153 610.173 414.153 610.173ZM499.267 589.903C499.267 589.903 509.747 610.206 503.422 627.876C497.098 645.546 473.969 660.583 473.969 660.583C473.969 660.583 532.772 659.949 592.676 674.56C652.58 689.172 690.205 716.722 690.205 716.722C690.205 716.722 656.488 697.683 590.333 685.506C524.178 673.33 425.585 668.017 425.585 668.017C425.585 668.017 473.209 653.1 491.629 633.572C510.049 614.043 499.267 589.903 499.267 589.903ZM459.491 607.505C459.491 607.505 465.293 629.604 455.269 645.471C445.246 661.338 419.395 670.971 419.395 670.971C419.395 670.971 476.923 683.17 532.202 710.487C587.481 737.805 604.432 792.71 604.432 792.71C604.432 792.71 589.44 746.962 527.529 720.659C465.619 694.356 370.554 667.681 370.554 667.681C370.554 667.681 420.284 663.503 442.518 648.459C464.752 633.415 459.491 607.505 459.491 607.505ZM518.247 556.515C518.247 556.515 535.989 570.912 537.28 589.636C538.571 608.359 523.412 631.408 523.412 631.408C523.412 631.408 577.028 607.249 637.764 596.616C698.501 585.982 684.948 632.929 684.948 632.929C684.948 632.929 705.493 592.212 640.007 607.583C574.52 622.954 482.069 657.618 482.069 657.618C482.069 657.618 519.716 624.858 528.76 599.582C537.805 574.306 518.247 556.515 518.247 556.515Z" fill="#ffffff" fill-rule="nonzero" opacity="1" stroke="none"/>
</g>
<g opacity="1">
<path d="M531.991 260.114C531.991 260.114 536.305 237.677 552.199 227.697C568.094 217.718 595.57 220.198 595.57 220.198C595.57 220.198 548.957 184.344 510.904 135.826C472.851 87.308 460.309 42.3938 460.309 42.3938C460.309 42.3938 475.041 78.2028 519.512 128.671C563.984 179.138 638.196 244.265 638.196 244.265C638.196 244.265 591.542 226.549 564.99 230.511C538.439 234.474 531.991 260.114 531.991 260.114ZM492.43 247.514C492.43 247.514 494.793 224.788 509.768 213.475C524.743 202.162 552.33 202.263 552.33 202.263C552.33 202.263 502.799 170.562 460.704 125.507C418.609 80.4512 422.107 23.0952 422.107 23.0952C422.107 23.0952 420.005 71.1911 468.663 117.636C517.322 164.08 596.873 222.564 596.873 222.564C596.873 222.564 548.865 208.937 522.754 215.175C496.643 221.412 492.43 247.514 492.43 247.514ZM446.195 240.156C446.195 240.156 445.944 217.308 459.528 204.358C473.111 191.407 500.529 188.353 500.529 188.353C500.529 188.353 447.698 162.523 400.727 122.576C353.757 82.629 332.503 41.1217 332.503 41.1217C332.503 41.1217 354.085 73.27 407.735 113.847C461.384 154.423 547.101 203.428 547.101 203.428C547.101 203.428 497.849 195.38 472.623 204.562C447.397 213.744 446.195 240.156 446.195 240.156ZM401.13 240.582C401.13 240.582 396.798 218.147 407.846 202.977C418.895 187.806 445.325 179.898 445.325 179.898C445.325 179.898 388.727 163.932 335.37 133.027C282.014 102.122 268.721 46.2185 268.721 46.2185C268.721 46.2185 280.663 92.8555 340.704 123.185C400.744 153.515 493.842 186.403 493.842 186.403C493.842 186.403 443.945 187.291 420.767 200.836C397.589 214.381 401.13 240.582 401.13 240.582ZM316.253 261.824C316.253 261.824 305.542 241.642 311.663 223.901C317.785 206.16 340.741 190.859 340.741 190.859C340.741 190.859 281.948 192.166 221.881 178.241C161.814 164.315 123.876 137.198 123.876 137.198C123.876 137.198 157.809 155.85 224.099 167.269C290.389 178.687 389.036 182.872 389.036 182.872C389.036 182.872 341.587 198.332 323.391 218.071C305.195 237.809 316.253 261.824 316.253 261.824ZM355.825 243.768C355.825 243.768 349.77 221.736 359.612 205.756C369.454 189.776 395.192 179.847 395.192 179.847C395.192 179.847 337.528 168.308 281.94 141.624C226.353 114.941 208.774 60.2335 208.774 60.2335C208.774 60.2335 224.289 105.807 286.496 131.4C348.704 156.992 444.067 182.578 444.067 182.578C444.067 182.578 394.388 187.325 372.328 202.622C350.268 217.92 355.825 243.768 355.825 243.768ZM297.656 295.427C297.656 295.427 279.751 281.233 278.245 262.526C276.74 243.819 291.635 220.598 291.635 220.598C291.635 220.598 238.299 245.369 177.688 256.697C117.077 268.024 130.091 220.926 130.091 220.926C130.091 220.926 110.014 261.875 175.32 245.756C240.627 229.636 332.675 193.916 332.675 193.916C332.675 193.916 295.406 227.105 286.651 252.483C277.896 277.861 297.656 295.427 297.656 295.427Z" fill="#ffffff" fill-rule="nonzero" opacity="1" stroke="none"/>
</g>
</g>
</g>
</g>
</svg>
